<svg width="275" height="286" viewBox="0 0 275 286" fill="none" xmlns="http://www.w3.org/2000/svg">
<g clip-path="url(#clip0_1_809)">
<path d="M50.4438 149.616C37.9514 149.616 16.8709 144.536 17.8469 134.782C13.4409 128.483 15.3096 120.964 23.7027 118.729C32.0959 116.494 45.3691 119.745 50.4441 116.9C55.5191 114.055 62.7412 105.318 77.1854 108.162C91.6296 111.007 92.6054 116.164 102.365 112.57C112.125 108.975 121.299 101.321 111.734 98.1377C102.17 94.9541 75.8243 88.9808 70.9394 81.8862C66.6451 75.6496 76.7952 71.7889 78.9423 67.7247C81.0894 63.6605 73.2389 60.4088 76.897 55.6483C80.0202 51.5841 89.8731 48.2169 101.649 53.297C112.808 58.1106 139.256 61.2219 152.334 51.468C159.772 45.9211 157.019 36.0245 145.893 35.8212C134.767 35.6179 125.398 36.4308 129.692 29.725C133.986 23.0192 151.104 19.5648 164.436 21.1903C177.768 22.816 185.854 27.1878 184.931 31.3504C183.76 36.6338 171.664 34.8171 170.103 42.3354C168.541 49.8541 176.733 52.8902 175.172 57.767C173.61 62.6438 153.31 67.7087 147.454 68.6307C141.599 69.5528 136.719 72.3976 145.307 76.0553C153.896 79.713 186.969 90.2056 189.421 105.52C191.372 117.712 178.295 133.156 159.751 137.626C141.208 142.097 121.299 137.83 117.59 138.643C113.881 139.455 121.103 159.268 101.649 160.589C99.6323 155.599 95.7739 151.414 88.4315 150.108C79.0395 154.188 61.8302 157.061 52.2355 157.718C44.1977 156.728 46.3448 151.648 50.4438 149.616V149.616Z" fill="#FDDE5F"/>
<path d="M101.649 161.018C101.568 161.018 101.489 160.993 101.421 160.946C101.354 160.9 101.301 160.833 101.27 160.756C98.9599 155.042 94.7753 151.704 88.4792 150.553C78.7415 154.746 61.4624 157.517 52.2627 158.147C52.2375 158.149 52.2122 158.148 52.1871 158.145C47.7921 157.603 46.6205 155.917 46.4118 154.597C46.1682 153.058 47.1772 151.306 48.9505 150.022C39.424 149.732 24.8781 146.737 19.4527 140.47C17.9545 138.739 17.2721 136.867 17.4226 134.903C15.2128 131.672 14.5597 128.055 15.6317 124.955C16.7415 121.745 19.5713 119.386 23.6005 118.313C27.669 117.23 32.7522 117.413 37.6679 117.591C42.8259 117.776 47.6977 117.953 50.2487 116.522C51.2605 115.956 52.3525 115.154 53.6172 114.226C58.6694 110.519 65.5883 105.443 77.262 107.741C82.8871 108.849 86.465 110.298 89.34 111.462C93.8846 113.302 96.3885 114.316 102.228 112.165C109.637 109.437 115.405 104.935 115.361 101.918C115.34 100.502 114.078 99.3678 111.609 98.5461C109.536 97.8559 106.689 97.0393 103.393 96.0941C91.2042 92.598 74.5115 87.8101 70.6043 82.1359C67.4723 77.587 71.5627 74.1323 74.8496 71.3561C76.4315 70.0201 77.9258 68.7581 78.5811 67.5178C79.4407 65.8904 78.4638 64.4022 77.3323 62.6787C75.9575 60.585 74.3992 58.2113 76.5751 55.3802C79.7779 51.2128 89.7233 47.6881 101.807 52.9005C112.398 57.4691 139.002 60.8838 152.094 51.1193C155.32 48.7134 156.741 45.2727 155.804 42.14C154.744 38.5992 150.943 36.3425 145.885 36.2499C144.595 36.2264 143.327 36.2164 142.102 36.207C135.185 36.1532 129.722 36.1104 128.479 33.671C127.94 32.6122 128.224 31.2436 129.349 29.4872C133.902 22.3774 151.52 19.1835 164.484 20.7646C174.56 21.9932 182.286 24.9241 184.647 28.413C185.326 29.416 185.556 30.437 185.332 31.4471C184.746 34.0907 181.803 35.0725 178.687 36.1118C175.058 37.3221 171.305 38.5738 170.505 42.4262C169.702 46.2922 171.646 48.9681 173.36 51.3289C174.897 53.4452 176.349 55.4443 175.562 57.9028C173.884 63.1447 152.762 68.2288 147.516 69.0548C143.81 69.6384 141.224 70.8664 141.081 72.1104C141.013 72.7094 141.49 73.9665 145.463 75.6585C146.616 76.1497 148.246 76.7773 150.133 77.5041C162.316 82.1956 187.667 91.9581 189.826 105.45C190.797 111.514 188.153 118.554 182.572 124.762C176.797 131.186 168.725 135.903 159.844 138.044C146.831 141.182 133.072 140.03 124.852 139.342C121.434 139.056 118.735 138.83 117.674 139.062C116.857 139.241 116.735 141.26 116.594 143.597C116.222 149.759 115.598 160.071 101.676 161.017C101.667 161.017 101.658 161.018 101.649 161.018L101.649 161.018ZM88.4317 149.68C88.4548 149.68 88.4781 149.682 88.5009 149.686C94.965 150.835 99.4754 154.352 101.912 160.14C114.829 159.126 115.396 149.758 115.772 143.543C115.948 140.637 116.075 138.537 117.505 138.223C118.682 137.966 121.298 138.184 124.918 138.487C133.091 139.171 146.771 140.316 159.658 137.209C168.382 135.106 176.306 130.478 181.971 124.176C187.376 118.164 189.943 111.39 189.014 105.591C186.933 92.5902 161.885 82.9444 149.848 78.3089C147.954 77.5796 146.318 76.9494 145.151 76.4528C141.688 74.9781 140.089 73.5242 140.264 72.0089C140.555 69.4774 145.794 68.459 147.393 68.2074C154.728 67.052 173.409 61.9162 174.781 57.6321C175.431 55.6018 174.167 53.8615 172.704 51.8467C170.882 49.3389 168.818 46.4964 169.7 42.2455C170.601 37.9085 174.763 36.5204 178.436 35.2952C181.323 34.3323 184.049 33.4228 184.53 31.2544C184.699 30.4919 184.512 29.7025 183.974 28.9074C181.744 25.6114 174.239 22.8177 164.388 21.6166C151.687 20.0676 134.297 23.3084 130.035 29.963C129.107 31.4125 128.828 32.525 129.207 33.269C130.22 35.2566 135.729 35.2995 142.108 35.3493C143.336 35.359 144.606 35.3687 145.9 35.3924C151.325 35.4914 155.422 37.9791 156.591 41.8846C157.638 45.3822 156.099 49.188 152.574 51.8164C145.1 57.3908 134.143 58.4063 126.266 58.2737C117.323 58.125 107.598 56.3269 101.492 53.6928C94.8835 50.842 89.4707 50.9086 86.0929 51.4667C82.1802 52.1134 78.8628 53.7766 77.2189 55.9158C75.4238 58.2514 76.6814 60.1667 78.0128 62.1947C79.1899 63.9876 80.4071 65.8415 79.3034 67.9309C78.5704 69.3184 77.0154 70.6316 75.3689 72.0223C72.0384 74.8351 68.5945 77.744 71.2741 81.6361C75.0113 87.0638 92.2225 92.0004 103.611 95.2669C106.916 96.215 109.771 97.0336 111.86 97.7289C114.703 98.6753 116.158 100.08 116.185 101.904C116.243 105.842 109.346 110.453 102.503 112.974C96.3745 115.231 93.6141 114.113 89.0411 112.261C86.1978 111.11 82.6594 109.677 77.109 108.584C65.7778 106.352 59.0237 111.308 54.092 114.927C52.8056 115.871 51.6947 116.686 50.6396 117.278C47.8924 118.818 42.9124 118.638 37.6399 118.448C32.783 118.273 27.7599 118.092 23.8051 119.145C20.0489 120.145 17.4217 122.312 16.4072 125.245C15.4147 128.116 16.0609 131.5 18.1803 134.53C18.2401 134.616 18.2676 134.721 18.2569 134.827C18.0795 136.599 18.6878 138.305 20.0651 139.896C25.0336 145.635 39.7024 149.188 50.4443 149.188C50.5379 149.187 50.6288 149.22 50.702 149.281C50.7752 149.342 50.8263 149.427 50.8469 149.522C50.8676 149.617 50.8565 149.716 50.8155 149.804C50.7745 149.891 50.706 149.962 50.6214 150.004C48.418 151.096 46.9894 152.969 47.225 154.458C47.4543 155.906 49.2373 156.911 52.2467 157.288C61.4344 156.655 78.6569 153.89 88.273 149.713C88.3235 149.691 88.3773 149.68 88.4317 149.68Z" fill="#692324"/>
<path d="M99.046 125.051C98.9718 125.051 98.899 125.03 98.8353 124.99C98.7716 124.951 98.7194 124.894 98.6841 124.826C98.6488 124.758 98.6317 124.682 98.6347 124.605C98.6378 124.527 98.6608 124.453 98.7013 124.388C101.173 120.435 110.037 119.298 119.423 118.093C129.967 116.74 140.87 115.341 143.375 110.006C143.399 109.955 143.432 109.91 143.473 109.873C143.513 109.836 143.56 109.807 143.612 109.789C143.663 109.77 143.717 109.763 143.771 109.766C143.825 109.77 143.878 109.784 143.926 109.809C143.975 109.834 144.018 109.868 144.054 109.91C144.09 109.953 144.117 110.002 144.135 110.055C144.152 110.108 144.16 110.165 144.156 110.221C144.153 110.277 144.139 110.332 144.115 110.383C141.414 116.135 130.285 117.563 119.523 118.944C110.334 120.124 101.654 121.238 99.3917 124.856C99.3543 124.916 99.3032 124.965 99.2428 124.999C99.1825 125.033 99.1146 125.051 99.046 125.051Z" fill="#692324"/>
<path d="M108.22 132.366C108.144 132.366 108.069 132.344 108.005 132.303C107.94 132.261 107.887 132.202 107.853 132.131C107.818 132.06 107.804 131.981 107.81 131.902C107.816 131.823 107.843 131.747 107.888 131.683C111.9 125.989 123.25 123.538 142.588 124.193C153.263 124.553 161.008 120.407 162.324 113.627C163.699 106.535 157.498 99.1233 146.526 94.7448C146.424 94.7041 146.342 94.6229 146.297 94.5189C146.253 94.415 146.25 94.297 146.289 94.1907C146.328 94.0845 146.406 93.9988 146.506 93.9525C146.605 93.9061 146.719 93.903 146.821 93.9437C158.189 98.48 164.591 106.273 163.131 113.797C161.732 121.009 153.656 125.429 142.561 125.05C123.781 124.414 112.338 126.817 108.553 132.191C108.514 132.245 108.464 132.29 108.407 132.32C108.349 132.35 108.285 132.366 108.22 132.366ZM39.0115 141.385C31.86 141.385 24.1413 140.073 17.6047 135.129C17.5179 135.062 17.4601 134.961 17.4438 134.85C17.4276 134.738 17.4541 134.625 17.5178 134.533C17.5815 134.442 17.6771 134.381 17.784 134.362C17.8909 134.344 18.0004 134.37 18.0889 134.435C27.0283 141.196 38.3244 140.984 47.1668 140.045C47.2756 140.034 47.3842 140.068 47.469 140.139C47.5537 140.211 47.6075 140.315 47.6186 140.428C47.6297 140.542 47.5972 140.655 47.5282 140.743C47.4592 140.831 47.3593 140.887 47.2506 140.899C44.6726 141.173 41.8872 141.385 39.0115 141.385V141.385Z" fill="#692324"/>
<path d="M73.8667 26.6769C73.3812 22.8011 99.0465 17.1263 111.929 19.8393C118.938 21.3155 123.836 29.5217 115.443 31.5537C107.049 33.5857 74.4522 31.3504 73.8667 26.6769Z" fill="#FDDE5F"/>
<path d="M105.427 32.7234C94.1645 32.7234 78.477 31.0819 74.5135 28.2208C73.8796 27.7634 73.5245 27.2624 73.4581 26.7321C73.3935 26.2174 73.6286 25.6968 74.1565 25.1842C76.0869 23.3103 82.3838 21.2477 90.1983 19.9297C98.7521 18.4872 106.703 18.3008 112.011 19.4187C116.446 20.3528 120.233 23.9553 120.279 27.2853C120.297 28.6019 119.705 30.9619 115.536 31.9714C113.432 32.4806 109.756 32.7234 105.427 32.7234ZM74.2751 26.6214C74.3097 26.8973 74.5544 27.2067 74.9831 27.5161C77.2744 29.1703 84.6602 30.6662 94.2582 31.4202C103.253 32.1267 111.729 32.0126 115.349 31.1363C118.022 30.489 119.481 29.126 119.455 27.2979C119.415 24.3936 115.86 21.1048 111.848 20.2599C100.233 17.8136 78.4597 22.1804 74.7186 25.812C74.497 26.027 74.2402 26.3421 74.2754 26.6217L74.2751 26.6214Z" fill="#692324"/>
<path d="M119.77 11.8429C119.57 8.10922 135.201 6.55957 135.569 11.8429C135.938 17.1263 119.999 16.1102 119.77 11.8429Z" fill="#FDDE5F"/>
<path d="M128.546 15.87C125.933 15.87 123.219 15.3419 121.474 14.4364C120.143 13.7463 119.412 12.8579 119.359 11.8667C119.238 9.6094 123.272 8.30821 127.071 8.05432C131.042 7.78957 135.758 8.61414 135.98 11.8118C136.053 12.8611 135.576 13.776 134.6 14.457C133.196 15.4363 130.913 15.87 128.546 15.87ZM120.182 11.8189C120.227 12.6598 121.109 13.2891 121.841 13.6688C124.949 15.281 131.472 15.607 134.141 13.7445C134.878 13.2308 135.211 12.6186 135.159 11.8738C134.992 9.47988 130.878 8.6596 127.124 8.91034C123.224 9.17081 120.111 10.4757 120.182 11.8189H120.182ZM81.7666 131.125C81.7301 131.125 81.693 131.12 81.6565 131.11C72.2076 128.385 60.0168 126.325 46.4022 125.153C46.2933 125.144 46.1924 125.09 46.1218 125.003C46.0511 124.916 46.0165 124.803 46.0254 124.69C46.0347 124.577 46.0867 124.472 46.17 124.398C46.2534 124.325 46.3612 124.289 46.4701 124.298C60.1352 125.475 72.3785 127.544 81.8765 130.283C81.9726 130.31 82.0558 130.373 82.1108 130.46C82.1657 130.547 82.1886 130.651 82.1751 130.754C82.1617 130.857 82.1129 130.951 82.0378 131.019C81.9627 131.088 81.8663 131.125 81.7666 131.125V131.125ZM122.284 69.4407C114.735 69.4407 102.886 67.0511 98.8784 65.1875C98.7803 65.14 98.7041 65.0543 98.6663 64.9488C98.6284 64.8434 98.6319 64.7266 98.676 64.6238C98.7201 64.521 98.8013 64.4404 98.902 64.3993C99.0027 64.3583 99.1148 64.3601 99.2143 64.4044C103.68 66.481 118.898 69.3398 125.438 68.3923C125.492 68.3835 125.547 68.386 125.6 68.3996C125.653 68.4133 125.703 68.4378 125.747 68.4717C125.791 68.5057 125.828 68.5484 125.856 68.5973C125.884 68.6463 125.902 68.7006 125.91 68.757C125.917 68.8134 125.914 68.8708 125.9 68.9258C125.886 68.9808 125.861 69.0324 125.828 69.0775C125.795 69.1227 125.753 69.1604 125.706 69.1886C125.658 69.2168 125.606 69.2349 125.551 69.2417C124.608 69.3784 123.501 69.4405 122.284 69.4405L122.284 69.4407Z" fill="#692324"/>
</g>
<g clip-path="url(#clip1_1_809)">
<path d="M191.414 103.745C204.839 104.601 217.146 105.04 228.697 113.966C246.683 124.642 257.899 150.042 254.835 170.083C252.277 186.814 240.194 208.173 227.075 214.187C210.393 221.834 202.42 222.651 174.632 222.651C148.954 222.651 136.718 220.68 122.844 205.756C108.971 190.832 103.595 170.143 110.188 148.921C116.901 127.315 137.597 109.892 156.283 106.154C180.163 101.377 184.041 103.274 191.414 103.744V103.745Z" fill="#FB896F"/>
<path d="M174.632 223.08C202.243 223.08 210.408 222.296 227.241 214.579C233.455 211.73 239.856 205.268 245.264 196.383C250.329 188.061 253.966 178.5 255.242 170.15C258.403 149.472 246.597 124.113 228.923 113.607C217.73 104.967 205.719 104.213 193.004 103.415L191.439 103.316C190.196 103.237 189.075 103.119 187.888 102.995C182.088 102.385 176.091 101.755 156.205 105.733C146.816 107.611 136.968 112.86 128.476 120.513C119.614 128.499 112.98 138.541 109.796 148.79C106.545 159.255 106.089 169.689 108.441 179.802C110.689 189.467 115.567 198.545 122.548 206.055C129.435 213.464 136.113 217.83 144.199 220.213C152.301 222.601 161.851 223.08 174.632 223.08V223.08ZM191.414 103.744L191.389 104.172L192.955 104.271C205.551 105.062 217.449 105.809 228.451 114.311C228.464 114.321 228.478 114.33 228.492 114.339C245.907 124.675 257.541 149.651 254.428 170.015C253.168 178.254 249.574 187.698 244.567 195.924C239.246 204.667 232.975 211.013 226.909 213.794C210.22 221.445 202.102 222.222 174.632 222.222C149.666 222.222 137.251 220.636 123.141 205.458C108.811 190.043 104.233 169.484 110.581 149.054C116.874 128.799 136.555 110.538 156.361 106.576C176.128 102.621 182.065 103.245 187.806 103.848C188.948 103.968 190.129 104.093 191.389 104.173L191.414 103.745V103.744Z" fill="#692324"/>
<path d="M207.134 154.611C219.497 146.374 229.418 135.777 230.537 131.767C231.656 127.758 237.273 148.434 237.049 152.22C233.559 153.96 214.067 156.099 207.134 154.611Z" fill="#FDDE5F"/>
<path d="M213.822 155.544C222.486 155.544 234.47 153.981 237.227 152.607C237.293 152.574 237.35 152.523 237.391 152.46C237.432 152.397 237.456 152.323 237.461 152.247C237.575 150.314 236.329 144.777 235.123 140.451C233.393 134.247 232.021 131.012 231.044 130.835C230.804 130.792 230.367 130.839 230.141 131.647C229.122 135.301 219.791 145.668 206.911 154.25C206.842 154.296 206.788 154.362 206.755 154.441C206.723 154.519 206.713 154.605 206.728 154.689C206.743 154.773 206.782 154.851 206.839 154.911C206.896 154.972 206.97 155.014 207.05 155.031C208.726 155.391 211.112 155.544 213.822 155.544L213.822 155.544ZM236.645 151.937C232.835 153.555 215.588 155.419 208.247 154.372C219.91 146.416 229.77 136.058 230.933 131.887C230.947 131.836 230.964 131.787 230.983 131.738C232.446 132.956 236.651 147.961 236.645 151.938V151.937Z" fill="#692324"/>
<path d="M179.629 155.348C176.2 152.582 163.771 147.597 150.541 133.41C146.478 137.312 147.46 149.347 147.447 154.932C157.449 157.047 181.235 156.644 179.629 155.348Z" fill="#FDDE5F"/>
<path d="M167.929 156.848C170.925 156.848 173.696 156.77 175.815 156.624C179.781 156.352 179.949 155.97 180.072 155.691C180.152 155.511 180.149 155.225 179.882 155.009C178.978 154.28 177.467 153.402 175.554 152.29C169.973 149.045 160.632 143.615 150.837 133.111C150.762 133.031 150.66 132.984 150.552 132.981C150.445 132.978 150.34 133.019 150.261 133.095C146.672 136.541 146.865 145.867 146.994 152.037C147.016 153.096 147.037 154.097 147.034 154.93C147.034 155.029 147.067 155.126 147.127 155.202C147.187 155.279 147.271 155.332 147.365 155.352C151.575 156.242 158.903 156.801 166.965 156.845C167.288 156.847 167.61 156.848 167.929 156.848V156.848ZM178.993 155.396C175.8 156.222 156.723 156.351 147.859 154.579C147.856 153.814 147.837 152.938 147.818 152.019C147.697 146.179 147.515 137.441 150.538 134.021C160.31 144.409 169.587 149.803 175.152 153.039C176.779 153.984 178.11 154.758 178.994 155.396H178.993Z" fill="#692324"/>
<path d="M190.563 174.718C190.381 175.817 201.08 175.609 202.87 174.718C204.66 173.827 198.79 161.658 195.71 159.571C193.696 160.934 191.335 170.065 190.563 174.718Z" fill="#FDDE5F"/>
<path d="M195.544 175.89C198.623 175.89 202.09 175.582 203.048 175.105C203.281 174.989 203.568 174.711 203.61 174.048C203.806 170.939 198.713 161.094 195.935 159.212C195.868 159.166 195.79 159.142 195.71 159.142C195.63 159.142 195.552 159.166 195.485 159.212C193.105 160.823 190.747 171.088 190.157 174.645C190.139 174.755 190.127 175.035 190.417 175.263C190.976 175.703 193.143 175.89 195.544 175.89ZM195.722 160.108C198.454 162.312 202.942 171.525 202.787 173.992C202.771 174.238 202.712 174.321 202.692 174.331C200.95 175.198 192.162 175.209 190.996 174.63C191.856 169.557 194.043 161.755 195.722 160.108Z" fill="#692324"/>
<path d="M182.952 65.7253C186.55 72.4325 191.196 79.2015 194.837 90.1162C197.527 98.1819 197.476 102.017 197.905 104.226C193.873 108.881 188.734 107.186 183.916 106.154C179.466 105.201 168.6 109.018 171.598 103.653C174.596 98.2877 179.419 94.1257 179.419 85.4386C179.419 76.7515 177.372 71.1828 177.11 69.6236C176.849 68.0644 181.279 62.6063 182.952 65.7256L182.952 65.7253Z" fill="#FB896F"/>
<path d="M191.086 107.76C193.616 107.76 196.052 107.006 198.211 104.513C198.254 104.463 198.285 104.403 198.302 104.339C198.319 104.274 198.322 104.206 198.309 104.141C198.212 103.64 198.137 103.03 198.051 102.324C197.753 99.8849 197.302 96.1989 195.227 89.9758C192.413 81.5406 188.975 75.5232 185.942 70.2136C185.015 68.592 184.14 67.0603 183.312 65.5165C182.745 64.4593 181.817 64.1041 180.699 64.5162C178.678 65.2617 176.481 68.3707 176.704 69.6974C176.76 70.0343 176.886 70.5136 177.061 71.1768C177.741 73.7621 179.006 78.5747 179.006 85.4386C179.006 91.8118 176.336 95.7241 173.755 99.5074C172.893 100.77 172.002 102.076 171.241 103.437C170.618 104.552 170.505 105.4 170.894 106.028C171.726 107.371 174.571 107.073 177.865 106.728C180.071 106.496 182.352 106.257 183.832 106.574C184.256 106.665 184.682 106.761 185.109 106.857C187.1 107.305 189.122 107.76 191.086 107.76L191.086 107.76ZM197.461 104.094C193.966 107.973 189.552 106.979 185.283 106.019C184.856 105.922 184.427 105.827 183.999 105.734C182.395 105.391 180.05 105.637 177.781 105.874C175.14 106.151 172.146 106.465 171.588 105.564C171.336 105.157 171.648 104.417 171.955 103.869C172.696 102.541 173.537 101.309 174.427 100.004C177.084 96.1116 179.831 92.0861 179.831 85.4392C179.831 78.46 178.497 73.3883 177.856 70.9509C177.694 70.3343 177.566 69.8472 177.516 69.5504C177.388 68.7865 179.231 65.9684 180.974 65.3252C181.71 65.0541 182.223 65.2483 182.591 65.9349C183.425 67.489 184.303 69.0256 185.232 70.6523C188.245 75.9264 191.661 81.9044 194.447 90.2572C196.494 96.3962 196.939 100.028 197.232 102.432C197.309 103.059 197.377 103.612 197.46 104.095L197.461 104.094ZM210.209 216.843C210.353 216.843 210.493 216.765 210.569 216.626C221.581 196.408 226.513 176.795 225.227 158.332C225.223 158.276 225.209 158.221 225.184 158.171C225.16 158.121 225.126 158.076 225.085 158.039C225.044 158.002 224.997 157.974 224.946 157.956C224.894 157.939 224.84 157.931 224.786 157.936C224.732 157.94 224.679 157.955 224.631 157.98C224.582 158.005 224.539 158.04 224.504 158.083C224.468 158.125 224.441 158.175 224.424 158.228C224.407 158.282 224.4 158.338 224.404 158.394C225.678 176.685 220.782 196.135 209.851 216.202C209.816 216.268 209.797 216.341 209.797 216.416C209.798 216.491 209.817 216.565 209.853 216.63C209.89 216.695 209.942 216.748 210.004 216.786C210.067 216.823 210.138 216.843 210.21 216.843L210.209 216.843ZM220.696 139.721C220.761 139.721 220.825 139.705 220.882 139.675C220.94 139.644 220.99 139.6 221.029 139.546C221.067 139.492 221.093 139.429 221.103 139.362C221.114 139.296 221.109 139.228 221.09 139.164C217.399 126.902 211.586 115.758 205.141 108.587C205.104 108.546 205.06 108.512 205.01 108.488C204.961 108.464 204.907 108.451 204.853 108.448C204.798 108.446 204.744 108.455 204.693 108.475C204.641 108.495 204.595 108.525 204.555 108.564C204.515 108.602 204.483 108.649 204.46 108.701C204.438 108.752 204.426 108.808 204.424 108.865C204.423 108.922 204.432 108.978 204.452 109.031C204.471 109.084 204.501 109.132 204.538 109.173C210.902 116.253 216.648 127.277 220.303 139.42C220.329 139.507 220.381 139.583 220.452 139.637C220.523 139.691 220.608 139.721 220.696 139.721V139.721ZM173.513 219.665C173.586 219.665 173.658 219.644 173.721 219.606C173.783 219.568 173.836 219.513 173.871 219.447C173.907 219.381 173.926 219.307 173.925 219.231C173.924 219.155 173.904 219.081 173.867 219.016C172.305 216.292 170.481 208.545 168.987 198.293C168.979 198.237 168.961 198.183 168.933 198.134C168.905 198.086 168.868 198.044 168.824 198.01C168.781 197.976 168.731 197.952 168.678 197.938C168.625 197.925 168.571 197.922 168.517 197.93C168.463 197.939 168.411 197.958 168.365 197.988C168.318 198.017 168.278 198.055 168.246 198.101C168.214 198.147 168.191 198.199 168.178 198.254C168.165 198.309 168.163 198.366 168.171 198.421C169.68 208.778 171.545 216.641 173.159 219.455C173.195 219.519 173.247 219.572 173.31 219.609C173.372 219.646 173.442 219.665 173.513 219.665ZM166.686 181.418C166.743 181.418 166.799 181.406 166.851 181.383C166.903 181.359 166.95 181.325 166.989 181.281C167.027 181.238 167.057 181.187 167.076 181.131C167.095 181.076 167.102 181.017 167.098 180.958C166.801 176.806 166.65 172.997 166.65 169.637C166.65 166.648 166.828 162.863 167.178 158.386C167.182 158.33 167.176 158.274 167.159 158.22C167.143 158.166 167.116 158.117 167.081 158.074C167.046 158.031 167.003 157.995 166.955 157.97C166.906 157.944 166.854 157.928 166.8 157.924C166.746 157.919 166.692 157.926 166.64 157.943C166.588 157.96 166.541 157.988 166.499 158.024C166.458 158.061 166.424 158.106 166.399 158.156C166.375 158.206 166.36 158.261 166.355 158.317C166.004 162.816 165.825 166.625 165.825 169.637C165.825 173.018 165.977 176.849 166.275 181.021C166.283 181.129 166.329 181.23 166.406 181.304C166.482 181.378 166.582 181.419 166.686 181.419V181.418ZM168.182 144.862C168.282 144.862 168.379 144.823 168.454 144.754C168.529 144.685 168.578 144.59 168.59 144.487C170.428 129.466 172.89 116.63 175.016 110.988C175.055 110.883 175.053 110.765 175.009 110.661C174.965 110.557 174.883 110.475 174.782 110.434C174.68 110.392 174.567 110.395 174.467 110.44C174.367 110.485 174.288 110.57 174.248 110.675C171.68 117.492 169.219 132.555 167.772 144.378C167.765 144.439 167.77 144.5 167.787 144.558C167.804 144.617 167.833 144.67 167.872 144.716C167.911 144.762 167.958 144.798 168.012 144.824C168.065 144.849 168.123 144.861 168.182 144.861V144.862ZM148.004 218.774C148.089 218.774 148.172 218.746 148.241 218.696C148.31 218.645 148.363 218.573 148.392 218.49C148.421 218.407 148.424 218.317 148.402 218.232C148.38 218.147 148.333 218.071 148.267 218.015C142.94 213.418 137.592 205.325 133.961 196.366C129.068 184.292 127.051 170.433 128.128 156.287C129.115 143.316 135.997 132.284 141.598 125.312C148.372 116.878 155.898 111.088 160.024 109.276C160.074 109.255 160.119 109.223 160.157 109.182C160.195 109.142 160.225 109.095 160.246 109.043C160.266 108.99 160.277 108.935 160.276 108.878C160.276 108.822 160.265 108.766 160.244 108.714C160.223 108.662 160.192 108.615 160.153 108.576C160.115 108.536 160.069 108.505 160.019 108.484C159.969 108.463 159.915 108.452 159.861 108.452C159.807 108.453 159.753 108.464 159.703 108.486C155.489 110.336 147.828 116.219 140.965 124.762C135.288 131.83 128.31 143.024 127.306 156.219C126.219 170.501 128.257 184.499 133.201 196.699C136.881 205.78 142.316 213.995 147.741 218.675C147.818 218.742 147.911 218.774 148.004 218.774ZM226.47 212.24C226.556 212.24 226.642 212.212 226.716 212.154C238.32 203.154 248.857 178.726 247.99 162.838C246.947 143.744 240.738 127.666 229.008 113.684C228.936 113.598 228.834 113.546 228.725 113.538C228.616 113.53 228.508 113.568 228.426 113.643C228.343 113.718 228.293 113.823 228.285 113.937C228.278 114.05 228.314 114.162 228.386 114.248C239.991 128.081 246.135 143.991 247.166 162.886C248.021 178.542 237.647 202.605 226.223 211.467C226.154 211.521 226.103 211.596 226.077 211.682C226.051 211.768 226.051 211.86 226.079 211.946C226.106 212.031 226.159 212.106 226.229 212.158C226.299 212.211 226.384 212.239 226.47 212.239L226.47 212.24ZM191.411 218.774C191.539 218.774 191.665 218.712 191.746 218.596C193.473 216.113 194.792 211.924 195.332 208.874C195.35 208.763 195.326 208.649 195.264 208.556C195.202 208.464 195.107 208.4 195 208.38C194.894 208.359 194.784 208.383 194.694 208.447C194.604 208.51 194.542 208.608 194.521 208.718C194.015 211.578 192.721 215.731 191.077 218.093C191.033 218.157 191.006 218.233 191 218.311C190.995 218.39 191.01 218.469 191.044 218.539C191.079 218.61 191.131 218.669 191.196 218.71C191.261 218.752 191.335 218.774 191.411 218.774ZM198.286 149.776C198.344 149.776 198.402 149.763 198.456 149.738C198.509 149.713 198.557 149.676 198.596 149.63C198.635 149.584 198.664 149.53 198.681 149.471C198.698 149.413 198.703 149.351 198.695 149.291C196.912 135.313 193.978 120.169 191.219 110.707C191.187 110.598 191.115 110.507 191.019 110.453C190.922 110.4 190.809 110.388 190.704 110.421C190.6 110.454 190.512 110.529 190.46 110.63C190.409 110.73 190.398 110.847 190.43 110.956C193.177 120.377 196.1 135.468 197.877 149.404C197.89 149.507 197.939 149.601 198.014 149.67C198.089 149.738 198.186 149.776 198.286 149.776V149.776Z" fill="#692324"/>
<path d="M189.751 100.792C189.855 100.792 189.956 100.751 190.032 100.677C190.108 100.603 190.155 100.502 190.162 100.393C190.836 90.6018 186.68 77.5065 185.972 76.4023C185.942 76.3548 185.904 76.3138 185.859 76.2819C185.813 76.2499 185.763 76.2276 185.709 76.2161C185.656 76.2047 185.601 76.2044 185.547 76.2153C185.494 76.2261 185.443 76.2479 185.397 76.2794C185.352 76.3109 185.313 76.3514 185.283 76.3986C185.253 76.4458 185.232 76.4988 185.221 76.5545C185.211 76.6102 185.211 76.6675 185.222 76.723C185.233 76.7786 185.255 76.8313 185.286 76.8782C185.947 77.9103 189.987 90.9238 189.34 100.332C189.336 100.391 189.343 100.45 189.362 100.506C189.381 100.561 189.411 100.612 189.449 100.655C189.488 100.698 189.535 100.733 189.587 100.756C189.639 100.78 189.695 100.792 189.751 100.792ZM185.629 99.7894C185.728 99.7893 185.824 99.7519 185.899 99.6843C185.974 99.6166 186.023 99.5232 186.037 99.421C186.447 96.4342 186.922 90.645 185.494 85.4326C185.479 85.3779 185.455 85.3267 185.421 85.2819C185.388 85.2372 185.346 85.1998 185.298 85.1719C185.251 85.1441 185.199 85.1263 185.144 85.1196C185.09 85.1129 185.035 85.1175 184.983 85.133C184.93 85.1486 184.881 85.1748 184.839 85.2102C184.796 85.2455 184.761 85.2893 184.734 85.3391C184.708 85.3888 184.692 85.4434 184.686 85.4998C184.68 85.5562 184.685 85.6133 184.701 85.6677C186.087 90.7274 185.621 96.3804 185.22 99.2998C185.212 99.3607 185.216 99.4227 185.233 99.4817C185.25 99.5407 185.278 99.5953 185.317 99.6417C185.356 99.6882 185.404 99.7254 185.458 99.7509C185.511 99.7763 185.57 99.7895 185.629 99.7894ZM177.109 104.356C177.174 104.356 177.238 104.34 177.296 104.309C177.354 104.279 177.404 104.235 177.442 104.18C183.985 94.8945 182.29 82.6903 179.993 70.9857C179.972 70.8742 179.908 70.7763 179.817 70.7136C179.725 70.6508 179.614 70.6284 179.507 70.6511C179.4 70.6739 179.305 70.74 179.245 70.8349C179.185 70.9299 179.163 71.0458 179.185 71.1573C181.445 82.6734 183.12 94.67 176.777 103.673C176.732 103.737 176.705 103.813 176.699 103.892C176.692 103.971 176.707 104.05 176.742 104.121C176.776 104.191 176.829 104.251 176.893 104.292C176.958 104.334 177.033 104.356 177.109 104.356Z" fill="#692324"/>
<path d="M228.133 136.02C229.431 134.253 230.259 132.766 230.537 131.767C230.979 130.185 232.12 132.447 233.327 135.996C235.058 141.892 236.757 149.177 237.049 152.22C236.265 152.611 234.538 153.026 232.266 153.41C231.367 149.347 230.937 143.093 228.133 136.02Z" fill="#FB896F"/>
<path d="M232.265 153.84C232.288 153.84 232.31 153.838 232.332 153.834C234.013 153.549 236.228 153.105 237.227 152.607C237.303 152.569 237.367 152.508 237.408 152.431C237.45 152.354 237.468 152.265 237.459 152.178C237.173 149.197 235.531 142.035 233.721 135.871C231.995 130.793 231.285 130.814 230.909 130.825C230.662 130.833 230.327 130.981 230.141 131.647C229.871 132.615 229.042 134.076 227.805 135.76C227.716 135.881 227.696 136.043 227.752 136.184C229.778 141.297 230.553 145.971 231.176 149.727C231.403 151.098 231.618 152.395 231.864 153.507C231.884 153.601 231.936 153.686 232.008 153.746C232.081 153.806 232.172 153.839 232.265 153.84ZM236.605 151.951C235.843 152.256 234.443 152.594 232.583 152.921C232.378 151.932 232.196 150.832 231.988 149.581C231.368 145.839 230.599 141.196 228.604 136.084C229.838 134.378 230.642 132.93 230.933 131.887C230.946 131.84 230.961 131.795 230.978 131.75C231.197 131.972 231.816 132.838 232.938 136.14C234.668 142.034 236.246 148.851 236.605 151.951H236.605Z" fill="#692324"/>
<path d="M192.472 166.568C193.453 163.262 194.631 160.302 195.71 159.571C198.79 161.658 204.66 173.827 202.87 174.718C202.071 175.116 199.496 175.377 196.907 175.447C195.876 173.119 194.109 169.299 192.472 166.568V166.568Z" fill="#FB896F"/>
<path d="M196.907 175.876H196.918C199.26 175.813 202.101 175.577 203.048 175.105C203.281 174.989 203.568 174.712 203.61 174.048C203.806 170.939 198.713 161.095 195.935 159.212C195.868 159.167 195.79 159.142 195.71 159.142C195.63 159.142 195.552 159.167 195.485 159.212C194.436 159.922 193.29 162.354 192.078 166.442C192.043 166.561 192.059 166.69 192.122 166.795C193.783 169.566 195.598 173.518 196.532 175.627C196.565 175.701 196.618 175.764 196.685 175.808C196.751 175.853 196.828 175.876 196.907 175.876ZM195.723 160.108C198.455 162.313 202.943 171.526 202.787 173.992C202.771 174.238 202.712 174.321 202.692 174.331C202.051 174.65 199.801 174.925 197.167 175.01C196.217 172.875 194.513 169.197 192.922 166.509C193.919 163.186 194.922 160.899 195.723 160.108Z" fill="#692324"/>
<path d="M241.99 166.161C240.871 169.359 238.843 172.012 234.387 177.6C232.775 179.622 230.325 182.946 228.759 185.62C227.193 188.293 226.052 181.944 224.821 182.501C222.499 183.552 218.748 191.036 217.376 192.97C215.927 195.012 213.467 186.294 211.524 183.187C210.341 181.296 208.09 185.508 206.3 187.29C204.509 189.072 202.806 182.683 201.209 180.886C199.922 179.438 198.902 182.056 198.188 183.169C197.475 184.283 195.496 180.613 194.272 181.276C193.049 181.939 190.189 184.227 189.07 186.678C187.951 189.128 185.217 185.273 183.42 183.225C181.368 180.886 181.158 184.677 178.889 188.627C177.287 191.415 171.057 182.947 169.267 181.165C167.477 179.383 169.994 185.675 162.386 182.557C154.778 179.438 152.765 175.738 149.408 174.538C146.052 173.338 141.348 170.749 140.453 168.967C140.626 172.584 141.18 177.434 144.144 179.271C147.526 181.367 148.675 179.884 150.018 183.671C151.361 187.457 157.013 194.696 158.438 195.031C159.863 195.365 162.493 189.963 163.891 190.13C165.29 190.297 167.919 195.476 169.038 199.486C173.569 202.437 192.309 200.154 192.98 202.159C194.211 199.542 195.917 195.755 197.721 194.363C199.525 192.97 199.973 198.428 201.036 199.709C202.098 200.99 205.455 195.031 206.853 195.254C208.252 195.476 209.595 205.277 210.433 205.277C211.272 205.277 222.013 196.701 222.964 196.367C223.915 196.033 225.258 199.319 227.495 201.992C230.292 200.21 235.047 188.014 237.956 184.005C240.865 179.995 242.66 168.087 241.989 166.161L241.99 166.161Z" fill="#FDDE5F"/>
<path d="M210.434 205.706C210.956 205.706 212.689 204.464 217.987 200.476C220.204 198.807 222.717 196.916 223.097 196.773C223.369 196.678 224.308 198.135 224.869 199.005C225.528 200.027 226.274 201.185 227.184 202.273C227.248 202.349 227.336 202.4 227.433 202.415C227.529 202.43 227.628 202.41 227.711 202.357C229.463 201.241 231.815 196.517 234.091 191.949C235.647 188.824 237.118 185.872 238.285 184.263C241.18 180.272 243.131 168.178 242.377 166.015C242.348 165.932 242.296 165.86 242.226 165.81C242.157 165.759 242.074 165.732 241.99 165.732C241.827 165.732 241.661 165.844 241.602 166.014C240.488 169.198 238.371 171.932 234.069 177.326C232.444 179.365 229.985 182.702 228.407 185.396C228.208 185.735 228.039 185.851 227.969 185.85C227.632 185.839 227.061 184.724 226.72 184.058C226.103 182.853 225.52 181.716 224.657 182.107C222.846 182.926 220.388 187.118 218.594 190.178C217.957 191.265 217.406 192.204 217.044 192.715C217.021 192.747 216.94 192.853 216.891 192.846C216.227 192.769 214.904 189.626 214.028 187.546C213.304 185.827 212.556 184.051 211.87 182.952C211.54 182.425 211.142 182.296 210.867 182.281C209.827 182.226 208.725 183.641 207.556 185.14C207.035 185.808 206.497 186.499 206.015 186.979C205.792 187.2 205.651 187.175 205.598 187.166C204.9 187.041 203.991 185.163 203.26 183.653C202.664 182.42 202.1 181.256 201.512 180.594C201.141 180.176 200.738 179.989 200.315 180.038C199.416 180.141 198.786 181.271 198.23 182.267C198.092 182.515 197.962 182.748 197.845 182.93C197.831 182.952 197.823 182.959 197.823 182.959H197.819C197.638 182.959 197.057 182.41 196.708 182.082C195.885 181.305 194.951 180.423 194.082 180.894C192.772 181.604 189.847 183.975 188.697 186.493C188.472 186.987 188.239 187.02 188.162 187.031C187.278 187.158 185.612 185.172 184.509 183.857C184.251 183.547 183.989 183.239 183.724 182.935C183.36 182.519 182.798 181.979 182.147 182.092C181.298 182.239 180.841 183.333 180.151 184.988C179.718 186.024 179.229 187.198 178.535 188.406C178.409 188.624 178.26 188.731 178.051 188.752C176.505 188.904 173.022 184.84 171.152 182.656C170.496 181.891 169.93 181.23 169.552 180.854C169.288 180.591 168.969 180.336 168.61 180.43C168.225 180.53 168.101 180.925 167.97 181.343C167.81 181.853 167.612 182.487 166.973 182.799C166.106 183.224 164.614 183.008 162.537 182.157C158.136 180.353 155.64 178.359 153.634 176.757C152.219 175.627 150.997 174.651 149.542 174.131C146.073 172.891 141.606 170.334 140.819 168.767C140.775 168.681 140.704 168.612 140.618 168.573C140.532 168.534 140.436 168.527 140.345 168.552C140.254 168.578 140.175 168.635 140.12 168.714C140.064 168.793 140.037 168.89 140.041 168.987C140.23 172.94 140.843 177.723 143.933 179.639C145.177 180.41 146.127 180.713 146.891 180.956C148.186 181.369 148.836 181.576 149.631 183.818C150.913 187.434 156.615 195.042 158.348 195.448C159.326 195.677 160.366 194.353 161.569 192.818C162.292 191.895 163.387 190.501 163.844 190.555C164.849 190.675 167.405 195.171 168.642 199.604C168.67 199.705 168.733 199.792 168.819 199.848C171.397 201.527 178.064 201.575 183.947 201.617C187.624 201.643 192.202 201.675 192.596 202.309C192.65 202.472 192.792 202.58 192.958 202.591C193.04 202.595 193.12 202.574 193.19 202.531C193.26 202.487 193.316 202.423 193.351 202.346L193.562 201.897C194.737 199.391 196.346 195.958 197.968 194.706C198.2 194.527 198.313 194.565 198.349 194.577C198.846 194.744 199.316 196.276 199.658 197.395C199.984 198.461 200.292 199.468 200.724 199.988C200.899 200.199 201.131 200.313 201.394 200.317C202.227 200.33 203.232 199.183 204.395 197.857C205.132 197.016 206.367 195.608 206.792 195.677C207.34 195.908 208.203 199.428 208.668 201.32C209.539 204.874 209.807 205.705 210.434 205.705L210.434 205.706ZM223.113 195.911C223.02 195.911 222.927 195.927 222.832 195.96C222.402 196.111 220.878 197.241 217.503 199.781C214.906 201.736 211.405 204.371 210.525 204.798C210.247 204.29 209.8 202.469 209.466 201.109C208.447 196.954 207.863 194.98 206.916 194.829C206.053 194.691 205.002 195.891 203.785 197.279C202.978 198.2 201.874 199.46 201.408 199.46C201.388 199.46 201.375 199.461 201.348 199.428C201.026 199.041 200.73 198.072 200.443 197.135C199.959 195.556 199.503 194.063 198.601 193.761C198.349 193.676 197.949 193.652 197.475 194.017C195.706 195.383 194.059 198.877 192.85 201.456C191.793 200.879 189.141 200.796 183.952 200.759C178.562 200.721 171.879 200.674 169.387 199.203C168.298 195.408 165.681 189.912 163.938 189.703C163.028 189.596 162.058 190.838 160.929 192.276C160.165 193.251 159.01 194.724 158.528 194.611C157.329 194.33 151.714 187.216 150.405 183.522C149.468 180.88 148.539 180.584 147.132 180.136C146.411 179.906 145.514 179.62 144.355 178.902C141.909 177.386 141.194 173.512 140.945 170.255C142.772 172.029 146.625 173.996 149.274 174.943C150.601 175.418 151.718 176.309 153.132 177.438C155.178 179.073 157.726 181.107 162.235 182.955C164.563 183.91 166.228 184.113 167.325 183.576C168.285 183.105 168.567 182.205 168.754 181.61C168.78 181.527 168.811 181.426 168.841 181.345C168.89 181.386 168.937 181.429 168.982 181.474C169.336 181.826 169.892 182.475 170.536 183.227C173.421 186.595 176.16 189.613 177.976 189.614C178.028 189.614 178.079 189.611 178.129 189.606C178.599 189.56 178.984 189.297 179.243 188.846C179.964 187.591 180.487 186.337 180.907 185.33C181.405 184.137 181.875 183.01 182.282 182.939C182.464 182.908 182.762 183.111 183.115 183.514C183.357 183.79 183.617 184.099 183.887 184.422C185.393 186.216 186.946 188.071 188.274 187.881C188.773 187.81 189.166 187.466 189.442 186.861C190.495 184.556 193.276 182.299 194.463 181.656C194.822 181.461 195.592 182.187 196.154 182.718C196.812 183.339 197.381 183.875 197.942 183.803C198.109 183.782 198.346 183.696 198.531 183.407C198.662 183.202 198.799 182.958 198.944 182.698C199.333 182.001 199.921 180.947 200.405 180.891C200.554 180.874 200.722 180.97 200.906 181.177C201.415 181.75 201.979 182.914 202.524 184.039C203.463 185.98 204.35 187.813 205.458 188.011C205.733 188.061 206.153 188.029 206.585 187.599C207.104 187.082 207.66 186.37 208.197 185.68C209.092 184.533 210.209 183.102 210.823 183.138C210.874 183.141 211.008 183.148 211.178 183.42C211.828 184.46 212.562 186.203 213.273 187.89C214.755 191.41 215.718 193.573 216.799 193.699C217.04 193.727 217.393 193.667 217.708 193.224C218.092 192.683 218.651 191.729 219.298 190.625C220.937 187.83 223.414 183.605 224.986 182.894C225.213 182.94 225.72 183.93 225.992 184.461C226.577 185.604 227.129 186.683 227.945 186.707C228.377 186.721 228.763 186.438 229.112 185.842C230.667 183.187 233.097 179.891 234.705 177.874C238.344 173.31 240.442 170.621 241.712 167.929C241.595 171.728 240.045 180.413 237.628 183.745C236.418 185.413 234.932 188.396 233.359 191.554C231.364 195.56 229.118 200.068 227.563 201.411C226.794 200.45 226.139 199.434 225.554 198.527C224.561 196.986 223.868 195.91 223.113 195.91L223.113 195.911Z" fill="#692324"/>
<path d="M227.495 201.991C226.945 201.334 225.716 199.52 225.267 198.852C227.53 194.427 231.821 186.324 233.834 183.956C235.679 181.785 236.893 177.755 237.213 174.014C240.04 171.006 241.329 168.049 241.99 166.16C242.661 168.086 240.865 179.994 237.956 184.004C235.047 188.014 230.293 200.209 227.496 201.991L227.495 201.991Z" fill="#FB896F"/>
<path d="M227.496 202.42C227.57 202.42 227.644 202.4 227.711 202.357C229.463 201.241 231.816 196.517 234.091 191.949C235.648 188.824 237.118 185.872 238.285 184.263C241.181 180.273 243.131 168.177 242.377 166.015C242.348 165.932 242.296 165.86 242.226 165.81C242.157 165.759 242.074 165.732 241.99 165.732C241.905 165.732 241.823 165.759 241.753 165.809C241.684 165.86 241.631 165.931 241.602 166.014C240.584 168.924 239.052 171.443 236.918 173.714C236.852 173.785 236.811 173.878 236.803 173.976C236.465 177.921 235.179 181.727 233.526 183.672C231.288 186.304 226.36 195.802 224.903 198.65C224.868 198.72 224.851 198.799 224.856 198.878C224.86 198.957 224.886 199.033 224.929 199.097C225.423 199.832 226.631 201.61 227.185 202.272C227.224 202.319 227.272 202.356 227.325 202.381C227.379 202.407 227.437 202.42 227.496 202.42L227.496 202.42ZM241.709 168.002C241.575 171.838 240.029 180.435 237.627 183.746C236.417 185.413 234.932 188.396 233.359 191.554C231.365 195.556 229.122 200.06 227.568 201.408C227.039 200.716 226.218 199.514 225.75 198.821C227.328 195.744 232.022 186.736 234.143 184.24C235.91 182.161 237.234 178.326 237.61 174.205C239.354 172.326 240.705 170.283 241.71 168.002L241.709 168.002Z" fill="#692324"/>
<path d="M190.704 197.214C191.752 195.65 196.336 193.471 198.286 194.14C198.113 194.138 197.926 194.204 197.722 194.362C195.918 195.754 194.211 199.541 192.98 202.158C192.789 201.587 190.56 201.296 187.581 201.233C188.324 199.904 189.761 198.623 190.705 197.214H190.704Z" fill="#FB896F"/>
<path d="M192.98 202.587C193.058 202.587 193.133 202.565 193.199 202.522C193.264 202.48 193.317 202.419 193.351 202.347L193.561 201.898C194.736 199.392 196.345 195.959 197.967 194.707C198.087 194.614 198.2 194.567 198.28 194.569C198.474 194.573 198.659 194.42 198.693 194.212C198.727 194.003 198.609 193.8 198.415 193.733C196.215 192.978 191.473 195.315 190.366 196.969C189.955 197.583 189.433 198.188 188.928 198.773C188.301 199.499 187.653 200.25 187.224 201.017C187.188 201.082 187.169 201.155 187.168 201.229C187.168 201.304 187.186 201.378 187.221 201.443C187.256 201.508 187.307 201.562 187.369 201.601C187.43 201.639 187.5 201.66 187.572 201.662C191.866 201.753 192.529 202.257 192.6 202.326C192.632 202.404 192.685 202.47 192.753 202.516C192.82 202.563 192.9 202.587 192.98 202.587ZM196.965 194.472C195.388 196.055 193.937 199.139 192.844 201.47C192.277 201.193 191.058 200.921 188.337 200.825C188.683 200.341 189.104 199.853 189.542 199.345C190.063 198.741 190.602 198.117 191.043 197.459C191.859 196.24 194.936 194.695 196.965 194.472Z" fill="#692324"/>
<path d="M215.199 198.009C217.101 196.212 220.391 195.921 222.964 196.367C222.013 196.701 211.273 205.277 210.433 205.277C210.131 205.277 209.51 202.983 209.098 201.343C211.229 200.02 214.153 198.998 215.199 198.009Z" fill="#FB896F"/>
<path d="M210.433 205.706C210.956 205.706 212.689 204.464 217.988 200.476C220.204 198.807 222.717 196.916 223.097 196.773C223.183 196.741 223.257 196.68 223.306 196.6C223.356 196.52 223.379 196.425 223.371 196.33C223.364 196.235 223.326 196.146 223.265 196.076C223.204 196.007 223.122 195.96 223.032 195.944C220.475 195.501 217.002 195.728 214.923 197.692C214.383 198.201 213.21 198.765 211.968 199.361C210.923 199.863 209.842 200.382 208.887 200.974C208.81 201.022 208.75 201.094 208.716 201.18C208.683 201.266 208.676 201.361 208.699 201.451C209.769 205.706 210.062 205.706 210.433 205.706ZM221.729 196.649C220.873 197.251 219.518 198.265 217.504 199.781C214.938 201.712 211.491 204.307 210.559 204.781C210.421 204.494 210.128 203.706 209.577 201.549C210.43 201.044 211.386 200.585 212.314 200.14C213.671 199.488 214.844 198.925 215.477 198.326C217.039 196.852 219.609 196.495 221.729 196.648L221.729 196.649Z" fill="#692324"/>
<path d="M167.65 147.929C173.382 151.75 177.794 153.868 179.629 155.348C180.271 155.866 176.848 156.242 171.869 156.37C170.823 153.41 169.712 151.071 167.65 147.929H167.65Z" fill="#FB896F"/>
<path d="M171.869 156.799H171.879C179.79 156.595 179.988 155.97 180.094 155.635C180.121 155.55 180.185 155.253 179.882 155.009C178.978 154.28 177.466 153.4 175.552 152.287C173.456 151.068 170.846 149.55 167.873 147.568C167.793 147.514 167.697 147.491 167.603 147.503C167.508 147.514 167.421 147.559 167.354 147.63C167.288 147.701 167.247 147.794 167.239 147.892C167.231 147.991 167.256 148.089 167.31 148.171C169.242 151.116 170.373 153.378 171.482 156.518C171.511 156.601 171.564 156.672 171.633 156.722C171.702 156.773 171.785 156.8 171.869 156.8L171.869 156.799ZM178.98 155.386C178.182 155.578 176.19 155.82 172.153 155.933C171.267 153.47 170.353 151.524 169.035 149.34C171.365 150.834 173.429 152.035 175.15 153.036C176.769 153.978 178.096 154.75 178.98 155.386Z" fill="#692324"/>
</g>
<g clip-path="url(#clip2_1_809)">
<path d="M127.687 163.131C127.661 163.131 127.608 163.131 127.582 163.104C127.371 163.05 127.24 162.834 127.292 162.618C128.319 158.815 130.082 155.146 132.451 152.044C132.582 151.855 132.819 151.828 133.004 151.963C133.188 152.097 133.214 152.34 133.082 152.529C130.793 155.577 129.056 159.138 128.082 162.834C128.029 162.996 127.871 163.131 127.687 163.131ZM129.766 164.965C129.74 164.965 129.687 164.965 129.661 164.938C129.45 164.884 129.345 164.641 129.398 164.426L131.451 157.655C131.503 157.439 131.74 157.331 131.951 157.385C132.161 157.439 132.267 157.682 132.214 157.897L130.161 164.668C130.108 164.857 129.95 164.965 129.766 164.965ZM196.96 179.128C196.907 179.128 196.881 179.128 196.829 179.101C196.618 179.02 196.513 178.804 196.592 178.588L197.513 175.837C197.592 175.621 197.802 175.513 198.013 175.594C198.223 175.675 198.329 175.891 198.25 176.106L197.329 178.858C197.276 179.02 197.118 179.128 196.96 179.128ZM195.486 176.997C195.381 176.997 195.276 176.943 195.197 176.862C195.065 176.7 195.065 176.43 195.249 176.295C196.092 175.567 196.671 174.515 196.855 173.409C196.907 173.193 197.092 173.031 197.302 173.085C197.513 173.139 197.671 173.328 197.618 173.544C197.381 174.838 196.723 176.025 195.749 176.889C195.67 176.97 195.565 176.997 195.486 176.997ZM184.3 165.1C184.142 165.1 184.011 165.019 183.932 164.884C183.274 163.481 182.274 162.268 181.037 161.377C180.853 161.242 180.826 161 180.931 160.811C181.063 160.622 181.3 160.595 181.484 160.703C182.826 161.674 183.906 162.996 184.616 164.534C184.721 164.722 184.616 164.965 184.432 165.073C184.406 165.073 184.353 165.1 184.3 165.1ZM220.095 162.348C219.963 162.348 219.832 162.268 219.753 162.133C219.648 161.944 219.727 161.701 219.911 161.593L222.595 160.055C222.78 159.948 223.016 160.028 223.122 160.217C223.227 160.406 223.148 160.649 222.964 160.757L220.279 162.294C220.227 162.321 220.148 162.348 220.095 162.348ZM216.2 161.431C216.042 161.431 215.91 161.35 215.831 161.188C215.752 160.973 215.831 160.757 216.042 160.649C218.858 159.354 221.437 157.412 223.49 155.038C223.622 154.876 223.885 154.849 224.043 155.011C224.201 155.173 224.227 155.416 224.069 155.577C221.937 158.032 219.253 160.028 216.331 161.377C216.305 161.431 216.252 161.431 216.2 161.431ZM230.939 147.619C230.728 147.619 230.544 147.431 230.544 147.215V146.459C230.544 146.244 230.728 146.055 230.939 146.055C231.149 146.055 231.333 146.244 231.333 146.459V147.215C231.333 147.458 231.176 147.619 230.939 147.619ZM182.774 212.497H182.695C182.484 212.443 182.353 212.228 182.405 212.012C182.616 211.014 183.221 210.15 184.064 209.584C184.248 209.476 184.485 209.53 184.616 209.719C184.721 209.908 184.669 210.15 184.485 210.285C183.827 210.717 183.353 211.418 183.169 212.201C183.116 212.389 182.958 212.497 182.774 212.497ZM181.589 204.539C181.458 204.539 181.326 204.458 181.247 204.35C180.484 203.083 180.142 201.599 180.273 200.115C180.3 199.899 180.484 199.738 180.695 199.738C180.905 199.764 181.063 199.953 181.063 200.169C180.958 201.464 181.247 202.786 181.932 203.892C182.037 204.081 181.984 204.323 181.8 204.458C181.721 204.512 181.668 204.539 181.589 204.539ZM252.758 212.201C252.679 212.201 252.6 212.174 252.521 212.12C252.336 211.985 252.31 211.742 252.442 211.553L255.442 207.264C255.574 207.075 255.811 207.048 255.995 207.183C256.179 207.318 256.205 207.561 256.074 207.749L253.073 212.039C252.994 212.147 252.889 212.201 252.758 212.201ZM250.284 154.202C250.231 154.202 250.178 154.202 250.126 154.175C249.915 154.094 249.836 153.851 249.915 153.635C250.573 152.097 251.126 150.506 251.626 148.914C251.678 148.698 251.915 148.591 252.126 148.644C252.336 148.698 252.442 148.941 252.389 149.157C251.889 150.776 251.31 152.394 250.652 153.959C250.573 154.094 250.415 154.202 250.284 154.202ZM94.498 82.4448C94.4191 82.4448 94.3401 82.4178 94.2611 82.3638C93.0504 81.4197 92.524 79.7202 92.9715 78.2365C93.0241 78.0207 93.261 77.9128 93.4715 77.9667C93.6821 78.0207 93.7874 78.2634 93.7347 78.4793C93.3926 79.6392 93.8137 80.988 94.7349 81.7164C94.9191 81.8513 94.9454 82.0941 94.8138 82.2829C94.7086 82.3908 94.6033 82.4448 94.498 82.4448ZM97.1826 81.2039C97.1036 81.2039 97.0247 81.1769 96.9457 81.1229C96.2614 80.6104 95.9719 79.6392 96.2351 78.8299C96.3141 78.6141 96.5246 78.5062 96.7352 78.5602C96.9457 78.6411 97.051 78.8569 96.9984 79.0727C96.8405 79.5583 97.0247 80.1518 97.4195 80.4485C97.6037 80.5834 97.63 80.8262 97.4984 81.015C97.4195 81.1499 97.3142 81.2039 97.1826 81.2039ZM129.477 76.8607C128.74 76.8607 128.029 76.7798 127.319 76.6179C127.108 76.5639 126.976 76.3481 127.003 76.1323C127.055 75.9165 127.266 75.7816 127.476 75.8086C129.187 76.1863 130.977 76.0784 132.661 75.4579C132.872 75.377 133.083 75.4849 133.161 75.7007C133.24 75.9165 133.135 76.1323 132.925 76.2133C131.819 76.6449 130.661 76.8607 129.477 76.8607ZM182.432 55.7113C182.3 55.7113 182.169 55.6304 182.09 55.5225C181.984 55.3336 182.037 55.0908 182.221 54.956C182.958 54.4974 183.774 53.9848 184.221 53.2025C184.59 52.5281 184.59 51.53 183.985 51.0984C183.8 50.9635 183.774 50.7207 183.879 50.5319C184.011 50.343 184.248 50.316 184.432 50.424C185.406 51.1253 185.432 52.636 184.879 53.6072C184.353 54.5513 183.379 55.1718 182.616 55.6573C182.59 55.7113 182.511 55.7113 182.432 55.7113ZM34.042 145.623C33.9367 145.623 33.8577 145.596 33.7788 145.515C32.6733 144.49 32.4101 142.656 33.1734 141.334C33.2787 141.145 33.5156 141.091 33.7261 141.199C33.9104 141.307 33.963 141.55 33.8577 141.766C33.2787 142.737 33.4892 144.166 34.3315 144.922C34.4894 145.084 34.5157 145.326 34.3578 145.488C34.2525 145.569 34.1472 145.623 34.042 145.623ZM38.2268 144.679C38.0688 144.679 37.9373 144.598 37.8583 144.436C37.5161 143.708 37.4109 142.845 37.5425 142.035C37.5688 141.82 37.7793 141.658 37.9899 141.712C38.2004 141.739 38.3584 141.954 38.3057 142.17C38.2004 142.818 38.2794 143.492 38.5426 144.086C38.6216 144.301 38.5426 144.517 38.3584 144.625C38.332 144.679 38.2794 144.679 38.2268 144.679ZM67.5731 186.384C67.4678 186.384 67.3625 186.357 67.2836 186.276C67.1257 186.115 67.1257 185.872 67.2836 185.71L69.0733 183.875C69.2312 183.714 69.4681 183.714 69.626 183.875C69.7839 184.037 69.7839 184.28 69.626 184.442L67.8363 186.276C67.7573 186.357 67.6784 186.384 67.5731 186.384ZM81.6277 244.977C81.5751 244.977 81.5225 244.977 81.4698 244.95L76.9692 243.115C76.7586 243.034 76.6797 242.792 76.7586 242.603C76.8376 242.387 77.0745 242.306 77.2587 242.387L81.7593 244.221C81.9699 244.302 82.0489 244.545 81.9699 244.734C81.9436 244.869 81.7857 244.977 81.6277 244.977ZM79.259 249.212C79.18 249.212 79.1011 249.185 79.0221 249.131L76.9165 247.62C76.7323 247.485 76.706 247.243 76.8113 247.054C76.9429 246.865 77.1797 246.838 77.364 246.946L79.4695 248.457C79.6538 248.592 79.6801 248.834 79.5748 249.023C79.4959 249.158 79.3906 249.212 79.259 249.212ZM164.298 237.612C160.85 237.612 157.402 237.019 154.164 235.886C153.954 235.805 153.849 235.589 153.928 235.373C154.007 235.157 154.217 235.049 154.428 235.13C158.191 236.479 162.297 237.019 166.271 236.749C166.482 236.722 166.666 236.911 166.693 237.127C166.719 237.342 166.535 237.531 166.324 237.558C165.666 237.585 164.982 237.612 164.298 237.612ZM157.639 273.194C157.586 273.194 157.533 273.194 157.481 273.167C156.375 272.654 155.217 272.358 154.033 272.25C153.822 272.223 153.664 272.034 153.664 271.818C153.691 271.602 153.875 271.44 154.086 271.44C155.375 271.548 156.612 271.872 157.797 272.439C158.007 272.519 158.086 272.762 157.981 272.978C157.928 273.086 157.77 273.194 157.639 273.194ZM142.11 265.91C141.952 265.91 141.794 265.802 141.742 265.641C141.663 265.425 141.768 265.209 141.979 265.128L144.926 264.076C145.137 263.995 145.347 264.103 145.426 264.319C145.505 264.534 145.4 264.75 145.189 264.831L142.242 265.883C142.189 265.91 142.163 265.91 142.11 265.91ZM204.303 106.669C204.119 106.669 203.935 106.508 203.908 106.319L203.514 103.055C203.487 102.839 203.645 102.623 203.856 102.596C204.066 102.569 204.277 102.731 204.303 102.947L204.698 106.211C204.724 106.427 204.566 106.642 204.356 106.669H204.303ZM208.356 105.429C208.172 105.429 208.014 105.294 207.962 105.105L207.198 101.409C207.146 101.193 207.277 100.977 207.514 100.923C207.725 100.87 207.935 101.004 207.988 101.247L208.751 104.943C208.804 105.159 208.672 105.375 208.435 105.429H208.356Z" fill="#692324"/>
</g>
<g clip-path="url(#clip3_1_809)">
<path d="M143.227 206.778C142.394 201.591 143.088 199.861 140.73 195.106C139.563 192.753 137.648 190.364 135.877 188.132C134.411 182.577 132.82 175.19 130.466 169.89C127.137 162.397 111.324 151.013 92.3215 153.895C73.3184 156.777 58.4768 169.746 54.5931 181.129C50.7094 192.513 57.922 212.686 62.777 220.179C67.6316 227.672 73.804 228.896 77.3091 228.441L77.3108 228.44C82.5383 232.165 90.5692 232.416 92.7376 230.265C94.2873 228.729 97.2313 227.863 100.027 228.005C101.495 229.152 102.885 231.162 103.973 233.67C105.505 237.204 106.195 241.091 109.59 243.739C114.307 247.418 135.931 241.873 137.679 239.127C138.735 237.467 136.144 230.702 135.069 226.159C137.814 224.906 142.379 222.789 144.891 220.179C148.22 216.721 144.059 211.966 143.227 206.778L143.227 206.778Z" fill="white"/>
<path d="M115.245 245.393C112.823 245.393 110.602 245.062 109.343 244.08C106.652 241.981 105.597 239.12 104.576 236.354C104.27 235.523 103.953 234.665 103.598 233.845C102.56 231.451 101.243 229.533 99.8794 228.426C97.1742 228.32 94.4326 229.176 93.0221 230.574C90.6398 232.937 82.4342 232.519 77.2079 228.884C74.9812 229.134 68.0596 229.098 62.4355 220.417C57.4787 212.767 50.2834 192.481 54.2053 180.986C57.9975 169.871 72.6244 156.45 92.2622 153.472C111.828 150.504 127.54 162.283 130.84 169.71C132.723 173.948 134.116 179.489 135.345 184.377C135.659 185.627 135.957 186.81 136.252 187.93L136.335 188.035C138.107 190.268 139.94 192.577 141.097 194.91C142.773 198.291 142.941 200.173 143.172 202.778C143.271 203.886 143.383 205.143 143.634 206.707C143.904 208.39 144.538 210.037 145.151 211.63C146.407 214.893 147.594 217.976 145.183 220.48C142.665 223.096 138.174 225.205 135.554 226.404C135.853 227.615 136.253 228.987 136.641 230.317C138.036 235.104 138.825 238.101 138.023 239.362C136.892 241.139 129.464 243.448 123.23 244.568C121.078 244.955 118.029 245.392 115.245 245.392L115.245 245.393ZM99.4358 227.562C99.6397 227.562 99.8434 227.567 100.047 227.577C100.129 227.581 100.209 227.611 100.275 227.663C101.783 228.841 103.229 230.912 104.349 233.494C104.714 234.336 105.035 235.207 105.345 236.048C106.369 238.824 107.336 241.445 109.838 243.397C111.607 244.776 116.561 244.899 123.09 243.726C130.308 242.429 136.564 240.103 137.335 238.891C137.982 237.875 136.801 233.822 135.852 230.566C135.424 229.095 134.981 227.575 134.67 226.261C134.647 226.163 134.657 226.06 134.7 225.97C134.743 225.88 134.815 225.808 134.904 225.767C137.414 224.621 142.087 222.488 144.601 219.876C146.628 217.77 145.589 215.072 144.386 211.948C143.757 210.313 143.106 208.623 142.821 206.848C142.565 205.253 142.452 203.98 142.352 202.857C142.129 200.348 141.968 198.535 140.365 195.302C139.249 193.051 137.444 190.778 135.7 188.58L135.561 188.404C135.524 188.357 135.497 188.303 135.481 188.245C135.177 187.094 134.872 185.879 134.549 184.594C133.328 179.74 131.945 174.238 130.093 170.069C128.321 166.08 123.217 161.495 117.091 158.386C111.682 155.641 103.004 152.708 92.3819 154.319C73.0626 157.248 58.6934 170.392 54.9816 181.272C51.1506 192.501 58.2427 212.414 63.1188 219.94C68.601 228.401 75.2947 228.268 77.2427 228.019C77.3451 228.001 77.4538 228.023 77.5439 228.087C82.7483 231.796 90.5181 231.875 92.4535 229.956C93.9299 228.492 96.6776 227.562 99.4358 227.562Z" fill="#692324"/>
<path d="M137.866 191.104C137.744 191.104 137.623 191.048 137.542 190.94C136.939 190.142 136.308 189.347 135.698 188.579C133.828 186.222 132.061 183.996 131.462 182.129C131.444 182.075 131.436 182.019 131.44 181.962C131.443 181.906 131.457 181.85 131.481 181.8C131.505 181.749 131.539 181.703 131.58 181.666C131.621 181.629 131.669 181.6 131.721 181.583C131.772 181.565 131.827 181.558 131.881 181.562C131.936 181.566 131.989 181.581 132.038 181.607C132.086 181.633 132.129 181.668 132.165 181.711C132.2 181.755 132.227 181.805 132.243 181.859C132.794 183.574 134.514 185.741 136.334 188.035C136.947 188.807 137.581 189.605 138.19 190.412C138.237 190.475 138.267 190.551 138.275 190.631C138.283 190.711 138.27 190.791 138.236 190.863C138.202 190.935 138.15 190.996 138.084 191.039C138.019 191.081 137.943 191.104 137.866 191.104V191.104ZM135.861 229.545C135.772 229.545 135.686 229.515 135.615 229.46C135.544 229.405 135.492 229.328 135.466 229.239C134.697 226.563 134.19 224.511 134.215 223.196C134.219 223.084 134.265 222.978 134.344 222.901C134.422 222.824 134.527 222.782 134.635 222.784C134.743 222.786 134.846 222.832 134.921 222.913C134.997 222.993 135.039 223.101 135.038 223.213C135.013 224.551 135.653 226.899 136.255 228.995C136.274 229.058 136.277 229.126 136.266 229.192C136.255 229.257 136.229 229.319 136.191 229.373C136.153 229.426 136.103 229.469 136.045 229.499C135.988 229.529 135.925 229.545 135.861 229.545ZM106.331 231.999C106.252 231.999 106.174 231.975 106.108 231.931C106.041 231.886 105.988 231.822 105.956 231.748C104.54 228.505 99.7951 227.761 96.0264 228.916C95.9222 228.947 95.8109 228.933 95.7163 228.879C95.6217 228.824 95.5515 228.733 95.5209 228.625C95.4903 228.518 95.5017 228.402 95.5527 228.303C95.6037 228.204 95.6901 228.129 95.7933 228.096C99.9002 226.838 105.104 227.728 106.706 231.394C106.734 231.459 106.746 231.531 106.741 231.602C106.736 231.674 106.714 231.743 106.677 231.803C106.64 231.863 106.588 231.912 106.528 231.947C106.467 231.981 106.4 231.999 106.331 231.999H106.331ZM79.7672 230.293C79.7109 230.293 79.6538 230.281 79.5995 230.255C76.9031 229.002 73.4828 226.585 72.5011 222.185C72.4808 222.092 72.4908 221.995 72.5295 221.908C72.5683 221.822 72.6336 221.752 72.7152 221.708C72.7968 221.665 72.8899 221.651 72.98 221.669C73.07 221.686 73.1518 221.735 73.2124 221.806C75.1997 224.166 79.3016 226.06 82.3293 226.036C83.4244 226.027 84.9346 225.764 85.9083 224.568C87.6688 222.405 87.2672 220.44 86.8419 218.36C86.4241 216.315 85.9917 214.201 87.6545 211.948C90.4028 208.225 88.8528 205.415 87.4852 202.935C87.3548 202.699 87.2271 202.467 87.1063 202.241C87.0801 202.192 87.0635 202.137 87.0574 202.082C87.0513 202.026 87.0559 201.969 87.0708 201.915C87.0858 201.861 87.1108 201.811 87.1445 201.767C87.1782 201.723 87.2199 201.686 87.2672 201.659C87.3145 201.632 87.3665 201.615 87.4203 201.608C87.474 201.602 87.5284 201.607 87.5804 201.622C87.6324 201.638 87.6809 201.664 87.7232 201.699C87.7655 201.734 87.8007 201.777 87.8269 201.826C87.9458 202.049 88.0713 202.277 88.1997 202.51C89.546 204.95 91.3897 208.293 88.3082 212.468C86.8763 214.408 87.251 216.241 87.6477 218.182C88.0954 220.372 88.5583 222.637 86.5372 225.12C85.6069 226.263 84.1541 226.875 82.3365 226.891C79.5616 226.915 76.1193 225.526 73.8013 223.568C75.0789 226.649 77.7585 228.462 79.936 229.474C80.0222 229.514 80.0926 229.583 80.1354 229.671C80.1782 229.758 80.1908 229.858 80.1711 229.954C80.1513 230.05 80.1005 230.136 80.0271 230.197C79.9537 230.259 79.8621 230.292 79.7677 230.292L79.7672 230.293ZM104.944 198.997C110.315 200.846 113.821 204.145 113.682 209.784C113.544 215.423 111.602 215.9 107.302 217.535C103.002 219.17 98.1507 221.907 95.5828 219.17C93.0152 216.432 91.628 212.685 93.4311 208.218C95.2341 203.752 101.72 197.887 104.944 198.996V198.997ZM122.767 196.75C124.583 194.994 126.998 194.962 131.853 195.827C136.708 196.692 138.562 199.064 138.564 203.824C138.566 209.565 131.437 215.549 126.998 212.235C122.56 208.921 120.583 198.86 122.767 196.75ZM122.733 212.905C122.552 213.906 117.323 220.398 118.433 225.009C119.543 229.619 121.901 230.34 124.952 229.619C128.004 228.899 131.048 228.766 129.446 224.732C127.845 220.697 126.544 218.001 126.2 215.132C125.857 212.264 123.149 210.599 122.733 212.904L122.733 212.905Z" fill="#692324"/>
<path d="M125.161 213.796C125.077 213.796 124.994 213.769 124.925 213.719C124.856 213.669 124.803 213.597 124.774 213.515C124.469 212.643 123.412 211.396 122.292 210.077C121.019 208.576 119.576 206.874 118.827 205.241C118.802 205.191 118.788 205.135 118.784 205.079C118.781 205.022 118.788 204.965 118.806 204.911C118.824 204.858 118.852 204.808 118.888 204.766C118.925 204.723 118.969 204.689 119.018 204.665C119.068 204.64 119.121 204.626 119.176 204.624C119.23 204.621 119.285 204.629 119.336 204.649C119.388 204.668 119.435 204.698 119.475 204.737C119.515 204.775 119.547 204.822 119.57 204.874C120.269 206.398 121.672 208.052 122.91 209.511C124.133 210.953 125.189 212.198 125.548 213.222C125.571 213.287 125.578 213.356 125.57 213.424C125.561 213.493 125.537 213.558 125.499 213.614C125.461 213.67 125.41 213.716 125.352 213.748C125.293 213.78 125.228 213.797 125.162 213.797L125.161 213.796ZM129.197 243.079C129.099 243.079 129.005 243.043 128.931 242.978C128.857 242.912 128.807 242.822 128.791 242.722C128.544 241.196 128.121 239.707 127.529 238.287C127.489 238.183 127.49 238.068 127.531 237.965C127.572 237.863 127.65 237.781 127.748 237.737C127.846 237.692 127.957 237.69 128.057 237.729C128.157 237.768 128.239 237.846 128.284 237.946C128.903 239.43 129.345 240.986 129.603 242.58C129.613 242.642 129.61 242.705 129.594 242.765C129.578 242.824 129.55 242.88 129.511 242.928C129.472 242.975 129.424 243.013 129.37 243.039C129.316 243.066 129.256 243.079 129.197 243.079ZM133.099 241.917C133.008 241.917 132.919 241.885 132.846 241.826C132.774 241.767 132.723 241.685 132.7 241.593C132.359 240.182 131.879 238.812 131.267 237.504C131.243 237.454 131.229 237.399 131.226 237.343C131.223 237.287 131.23 237.231 131.248 237.178C131.265 237.124 131.293 237.076 131.329 237.034C131.365 236.991 131.408 236.957 131.457 236.933C131.505 236.908 131.558 236.894 131.612 236.89C131.666 236.887 131.72 236.895 131.771 236.913C131.822 236.931 131.87 236.96 131.91 236.997C131.951 237.034 131.983 237.08 132.007 237.13C132.644 238.491 133.144 239.917 133.499 241.385C133.514 241.448 133.516 241.514 133.503 241.577C133.49 241.641 133.463 241.701 133.424 241.752C133.386 241.803 133.337 241.845 133.28 241.873C133.224 241.902 133.162 241.917 133.099 241.917ZM136.233 240.552C135.94 240.552 135.86 240.256 135.788 239.992C135.613 239.351 135.082 237.4 134.577 236.386C134.529 236.285 134.52 236.169 134.554 236.062C134.587 235.955 134.66 235.866 134.756 235.814C134.852 235.763 134.964 235.752 135.068 235.786C135.171 235.819 135.258 235.894 135.309 235.993C135.851 237.085 136.381 239.027 136.58 239.759C136.604 239.849 136.622 239.915 136.633 239.953C136.657 240.012 136.668 240.076 136.665 240.141C136.662 240.205 136.645 240.268 136.615 240.325C136.586 240.381 136.544 240.43 136.494 240.468C136.443 240.506 136.385 240.531 136.324 240.543C136.291 240.549 136.261 240.552 136.233 240.552ZM124.819 244.083C124.729 244.083 124.641 244.051 124.569 243.994C124.497 243.937 124.445 243.856 124.422 243.765C124.087 242.467 123.679 241.19 123.199 239.942C123.178 239.89 123.167 239.834 123.167 239.777C123.167 239.72 123.177 239.664 123.198 239.611C123.22 239.559 123.251 239.512 123.289 239.472C123.328 239.432 123.375 239.4 123.425 239.379C123.476 239.358 123.531 239.348 123.585 239.349C123.64 239.35 123.694 239.362 123.744 239.385C123.794 239.408 123.839 239.441 123.877 239.482C123.915 239.523 123.944 239.572 123.963 239.625C124.456 240.904 124.874 242.213 125.217 243.545C125.234 243.608 125.236 243.674 125.223 243.739C125.211 243.803 125.185 243.864 125.146 243.916C125.108 243.968 125.058 244.01 125.002 244.039C124.945 244.068 124.882 244.083 124.819 244.083V244.083ZM119.542 244.963C119.443 244.963 119.346 244.925 119.271 244.857C119.196 244.789 119.148 244.694 119.135 244.592C118.971 243.322 118.703 242.069 118.333 240.846C118.305 240.739 118.318 240.625 118.369 240.528C118.42 240.43 118.505 240.357 118.607 240.324C118.709 240.291 118.819 240.3 118.915 240.349C119.01 240.399 119.084 240.485 119.119 240.59C119.503 241.859 119.781 243.16 119.951 244.479C119.959 244.539 119.954 244.6 119.937 244.659C119.92 244.717 119.891 244.771 119.852 244.817C119.814 244.863 119.766 244.9 119.712 244.925C119.659 244.95 119.601 244.963 119.542 244.963L119.542 244.963ZM84.2266 199.625C84.1379 199.625 84.049 199.596 83.9737 199.535C82.5081 198.348 81.2779 196.865 80.0884 195.432C78.6112 193.652 77.2158 191.971 75.393 190.773C75.346 190.744 75.3052 190.705 75.2729 190.659C75.2405 190.613 75.2174 190.561 75.2048 190.505C75.1922 190.45 75.1903 190.392 75.1994 190.336C75.2084 190.28 75.2282 190.226 75.2575 190.178C75.2868 190.13 75.325 190.089 75.37 190.056C75.415 190.023 75.4657 190.001 75.5194 189.989C75.573 189.977 75.6283 189.976 75.6822 189.987C75.736 189.997 75.7873 190.019 75.833 190.05C77.7594 191.316 79.2605 193.125 80.7121 194.873C81.8756 196.275 83.0788 197.725 84.4802 198.86C84.5479 198.915 84.5974 198.991 84.6218 199.076C84.6463 199.161 84.6444 199.253 84.6164 199.337C84.5885 199.421 84.5359 199.494 84.466 199.546C84.3961 199.598 84.3124 199.626 84.2266 199.625ZM62.3723 210.388C62.2694 210.388 62.1664 210.348 62.0863 210.268C60.24 208.419 58.7227 206.247 57.6044 203.849C57.5567 203.747 57.5499 203.63 57.5856 203.523C57.6214 203.415 57.6966 203.327 57.7949 203.278C57.8932 203.228 58.0063 203.221 58.1096 203.258C58.2128 203.295 58.2976 203.373 58.3453 203.476C59.4216 205.782 60.8816 207.873 62.6581 209.652C62.7171 209.711 62.7578 209.787 62.7748 209.871C62.7919 209.954 62.7846 210.041 62.7538 210.12C62.7231 210.199 62.6703 210.267 62.6023 210.314C62.5343 210.362 62.4541 210.388 62.372 210.388L62.3723 210.388ZM63.9055 208.509C63.8353 208.509 63.7662 208.491 63.7048 208.455C62.8235 207.943 62.0372 207.272 61.3829 206.473C61.316 206.387 61.2842 206.276 61.2944 206.165C61.3046 206.055 61.3558 205.952 61.4374 205.88C61.5189 205.808 61.6243 205.772 61.7311 205.779C61.838 205.786 61.938 205.836 62.0099 205.918C62.6007 206.64 63.3109 207.246 64.107 207.708C64.1865 207.754 64.2489 207.827 64.2846 207.914C64.3202 208.001 64.3271 208.098 64.3041 208.189C64.281 208.281 64.2294 208.362 64.1573 208.42C64.0852 208.478 63.9966 208.509 63.9055 208.509ZM92.9004 195.102C92.8326 195.102 92.7659 195.085 92.7062 195.052C92.6464 195.018 92.5955 194.97 92.5579 194.912C92.5204 194.853 92.4973 194.786 92.4907 194.716C92.4842 194.646 92.4944 194.575 92.5205 194.51L93.9074 191.051C93.9501 190.948 94.0305 190.866 94.131 190.824C94.2316 190.781 94.3441 190.782 94.4443 190.825C94.5444 190.868 94.624 190.951 94.6658 191.055C94.7076 191.159 94.7083 191.276 94.6675 191.38L93.2806 194.839C93.2494 194.917 93.1966 194.983 93.1289 195.03C93.0612 195.077 92.9817 195.102 92.9004 195.102ZM126.62 189.021C126.553 189.021 126.486 189.004 126.423 188.969C125.805 188.619 125.107 188.45 124.403 188.481C124.349 188.485 124.294 188.476 124.243 188.458C124.191 188.439 124.144 188.409 124.103 188.371C124.063 188.333 124.03 188.287 124.007 188.236C123.984 188.184 123.971 188.129 123.968 188.072C123.966 188.015 123.975 187.959 123.994 187.906C124.013 187.852 124.042 187.804 124.079 187.762C124.116 187.721 124.161 187.687 124.211 187.664C124.26 187.641 124.314 187.628 124.369 187.627C125.221 187.589 126.068 187.794 126.817 188.217C126.898 188.263 126.961 188.335 126.998 188.422C127.035 188.509 127.042 188.607 127.02 188.699C126.997 188.791 126.945 188.873 126.873 188.931C126.801 188.99 126.712 189.021 126.62 189.021H126.62ZM125.911 186.457C125.854 186.457 125.798 186.445 125.746 186.421C124.583 185.895 123.318 185.659 122.052 185.734C121.828 185.747 121.63 185.567 121.617 185.331C121.604 185.096 121.777 184.893 122.004 184.88C123.4 184.797 124.795 185.057 126.076 185.638C126.163 185.677 126.234 185.746 126.277 185.834C126.32 185.921 126.333 186.021 126.314 186.117C126.295 186.213 126.244 186.3 126.17 186.362C126.097 186.423 126.005 186.457 125.911 186.457ZM116.882 217.143C116.816 217.143 116.751 217.127 116.693 217.096C116.635 217.064 116.584 217.019 116.546 216.963C116.508 216.908 116.483 216.843 116.474 216.776C116.465 216.708 116.471 216.639 116.493 216.575L117.704 212.959C117.722 212.906 117.749 212.857 117.785 212.815C117.821 212.773 117.865 212.739 117.914 212.714C117.962 212.69 118.015 212.676 118.069 212.672C118.123 212.669 118.177 212.677 118.228 212.695C118.279 212.714 118.326 212.743 118.367 212.78C118.407 212.817 118.44 212.863 118.463 212.913C118.487 212.964 118.501 213.019 118.504 213.075C118.507 213.131 118.499 213.187 118.482 213.24L117.271 216.856C117.243 216.94 117.19 217.013 117.12 217.064C117.051 217.116 116.968 217.143 116.882 217.143ZM114.689 230.977C114.603 230.977 114.519 230.949 114.45 230.898C114.38 230.846 114.328 230.773 114.3 230.689C113.728 228.978 113.429 227.181 113.414 225.37C113.413 225.257 113.456 225.148 113.532 225.067C113.609 224.986 113.713 224.94 113.822 224.938H113.826C113.935 224.938 114.039 224.983 114.116 225.062C114.193 225.142 114.237 225.249 114.238 225.362C114.252 227.081 114.536 228.785 115.078 230.409C115.099 230.473 115.106 230.542 115.096 230.61C115.087 230.677 115.062 230.741 115.024 230.797C114.986 230.853 114.936 230.898 114.877 230.929C114.819 230.96 114.754 230.977 114.689 230.977V230.977ZM111.34 228.245C111.241 228.244 111.145 228.207 111.07 228.139C110.996 228.072 110.947 227.978 110.933 227.876L110.64 225.717C110.627 225.606 110.657 225.494 110.722 225.405C110.788 225.316 110.885 225.258 110.991 225.242C111.098 225.227 111.207 225.255 111.293 225.322C111.38 225.388 111.438 225.487 111.455 225.598L111.748 227.757C111.757 227.818 111.752 227.879 111.736 227.938C111.719 227.997 111.69 228.051 111.651 228.097C111.613 228.144 111.565 228.181 111.511 228.206C111.457 228.232 111.399 228.245 111.34 228.245ZM72.5376 172.775C72.4745 172.775 72.4122 172.76 72.3555 172.731C72.2989 172.702 72.2494 172.66 72.2109 172.608C72.1724 172.556 72.146 172.495 72.1336 172.431C72.1212 172.367 72.1233 172.3 72.1396 172.237C72.5113 170.788 73.4051 169.466 74.5919 168.612C74.6363 168.579 74.6866 168.555 74.7399 168.542C74.7932 168.529 74.8485 168.528 74.9024 168.537C74.9563 168.547 75.0079 168.568 75.054 168.598C75.1002 168.629 75.14 168.669 75.1712 168.715C75.2023 168.762 75.2242 168.815 75.2356 168.87C75.2469 168.926 75.2475 168.983 75.2373 169.039C75.227 169.095 75.2061 169.148 75.1759 169.195C75.1456 169.243 75.1066 169.283 75.0611 169.315C74.0324 170.056 73.2577 171.201 72.9354 172.457C72.9121 172.548 72.8605 172.628 72.7886 172.686C72.7167 172.743 72.6286 172.774 72.5379 172.775L72.5376 172.775Z" fill="#692324"/>
</g>
<g clip-path="url(#clip4_1_809)">
<path d="M57.3869 193.251C57.2394 197.427 55.734 205.691 56.285 212.934C56.836 220.177 56.1473 222.049 57.3869 225.361C58.6265 228.673 62.208 230.994 58.3512 231.417C54.4944 231.84 53.5301 232.848 50.7753 236.016C48.0205 239.184 47.0562 239.904 45.9543 236.016C44.8523 232.128 42.9238 232.596 39.067 233.514C35.2103 234.432 34.246 236.052 33.9704 233.514C33.6947 230.976 38.5161 234.864 38.3781 230.544C38.2404 226.225 36.4496 224.353 39.8933 223.057C43.3371 221.761 44.0257 220.238 43.7501 215.96C43.4745 211.682 45.1277 199.155 44.3011 195.987C43.4745 192.819 39.8933 190.227 41.8216 188.644C43.7501 187.06 46.9183 195.123 50.0864 195.987C53.2545 196.851 57.4834 190.523 57.3869 193.251Z" fill="#FB896F"/>
<path d="M47.6407 239.097C47.5475 239.097 47.4554 239.086 47.3635 239.064C46.623 238.887 46.101 238.039 45.562 236.137C44.5713 232.642 42.9942 233.018 39.1827 233.925C37.9501 234.218 37.0486 234.569 36.3242 234.852C35.3597 235.228 34.7226 235.476 34.2174 235.152C33.7629 234.86 33.6348 234.215 33.5639 233.562C33.5124 233.088 33.6067 232.723 33.8445 232.476C34.267 232.038 34.9679 232.126 35.7095 232.219C36.409 232.307 37.2023 232.407 37.6025 232.023C37.8686 231.768 37.9921 231.275 37.9692 230.559C37.9305 229.35 37.7609 228.346 37.611 227.461C37.2419 225.278 36.975 223.701 39.7543 222.655C42.9429 221.455 43.6136 220.209 43.3418 215.989C43.2226 214.139 43.4535 210.839 43.6981 207.345C44.0097 202.894 44.3627 197.849 43.9061 196.1C43.6002 194.928 42.8666 193.795 42.2194 192.796C41.1755 191.184 40.0959 189.518 41.5686 188.308C41.8552 188.073 42.1788 187.977 42.5291 188.022C43.6106 188.162 44.7327 189.678 46.0317 191.433C47.3389 193.199 48.8206 195.201 50.1892 195.574C51.6769 195.979 53.5782 194.477 54.9669 193.38C56.125 192.466 56.824 191.914 57.3829 192.218C57.8237 192.458 57.8022 193.068 57.7951 193.268C57.7471 194.626 57.5598 196.386 57.3431 198.423C56.8881 202.702 56.3213 208.026 56.692 212.9C56.9009 215.645 56.9322 217.614 56.9576 219.196C56.999 221.787 57.0219 223.214 57.7673 225.205C58.1557 226.243 58.791 227.188 59.3515 228.022C60.1295 229.18 60.744 230.094 60.4054 230.872C60.1685 231.416 59.548 231.716 58.3935 231.842C54.7453 232.243 53.8655 233.098 51.0774 236.304C49.5911 238.013 48.5747 239.097 47.6405 239.097L47.6407 239.097ZM42.7147 232.455C44.4205 232.455 45.5955 233.246 46.3461 235.895C46.7596 237.353 47.1634 238.139 47.5459 238.231C48.1197 238.368 49.2579 237.125 50.4727 235.728C53.3039 232.473 54.3868 231.422 58.3084 230.992C59.3951 230.872 59.6165 230.62 59.6612 230.518C59.8062 230.185 59.2092 229.297 58.6827 228.513C58.0958 227.64 57.4306 226.651 57.0061 225.517C56.2071 223.382 56.1822 221.812 56.1405 219.21C56.1154 217.64 56.0841 215.686 55.8775 212.968C55.5004 208.012 56.0716 202.643 56.5307 198.328C56.7457 196.307 56.9314 194.562 56.9783 193.235C56.9821 193.159 56.9796 193.082 56.9707 193.007C56.6716 193.105 55.9794 193.652 55.4606 194.062C53.9383 195.264 51.853 196.911 49.9834 196.401C48.3449 195.954 46.8406 193.921 45.3853 191.956C44.2976 190.486 43.1727 188.966 42.429 188.87C42.2976 188.853 42.1878 188.887 42.0744 188.98C41.2799 189.632 41.6919 190.455 42.8971 192.316C43.58 193.37 44.354 194.565 44.6959 195.875C45.1891 197.765 44.8461 202.666 44.5143 207.406C44.272 210.87 44.043 214.141 44.1583 215.931C44.4532 220.511 43.5661 222.129 40.0319 223.459C37.9005 224.261 38.0516 225.154 38.4166 227.312C38.5635 228.18 38.7462 229.26 38.7868 230.53C38.8184 231.521 38.6118 232.215 38.1557 232.653C37.4782 233.302 36.4436 233.172 35.6119 233.068C35.1689 233.012 34.5623 232.936 34.4208 233.083C34.3725 233.133 34.3559 233.276 34.3763 233.466C34.4589 234.227 34.592 234.389 34.6451 234.423C34.8114 234.53 35.4071 234.297 36.0382 234.051C36.7462 233.775 37.7154 233.397 38.9757 233.097C40.4354 232.75 41.6741 232.455 42.7147 232.455Z" fill="#692324"/>
<path d="M50.5668 196.488C50.5102 196.488 50.4542 196.475 50.4023 196.452C50.3505 196.428 50.3039 196.393 50.2656 196.35C50.2272 196.306 50.198 196.255 50.1796 196.199C50.1612 196.143 50.1542 196.083 50.1589 196.024C50.2513 194.871 50.2723 192.446 49.7639 190.675C49.7349 190.567 49.7476 190.452 49.7993 190.354C49.8509 190.255 49.9374 190.182 50.0401 190.15C50.1428 190.118 50.2534 190.129 50.3483 190.181C50.4431 190.234 50.5145 190.323 50.5471 190.43C51.0907 192.323 51.0711 194.882 50.9738 196.096C50.9652 196.203 50.9187 196.302 50.8433 196.375C50.7679 196.447 50.6692 196.487 50.5668 196.488Z" fill="#692324"/>
<path d="M49.9522 177.557C49.329 175.472 47.0595 187.78 48.9193 190.228C50.7788 192.675 52.7417 188.716 51.9151 183.892C51.0885 179.069 50.4689 179.284 49.9522 177.557Z" fill="#FDDE5F"/>
</g>
<g clip-path="url(#clip5_1_809)">
<path d="M92.484 105.474C92.7795 111.415 92.0538 114.719 94.4063 119.342C96.7586 123.964 100.772 131.91 98.4193 133.643C96.0671 135.377 95.9285 134.365 94.6832 131.043C93.4379 127.72 94.6832 147.945 94.6832 151.701C94.6832 155.456 102.709 156.034 102.432 159.646C102.155 163.257 97.5189 157.454 95.4459 160.512C92.521 164.828 95.9811 170.391 95.4952 173.713C95.0094 177.036 90.2898 175.628 91.0681 169.433C91.7506 164.001 89.7191 160.494 85.8791 162.228C84.593 162.809 83.9432 164.475 83.7517 165.695C83.2327 168.999 79.8598 168.783 79.8773 165.713C79.8924 163.023 82.1433 160.746 83.8555 159.303C81.3767 157.858 76.81 158.473 75.0202 159.473C73.2305 160.473 72.2388 157.068 75.0202 156.912C77.8016 156.757 82.2298 154.734 82.6447 150.978C83.0599 147.222 83.4751 138.199 83.4751 136.86C83.4751 135.521 80.1542 136.388 81.9529 133.209C83.7517 130.031 85.8274 128.876 85.5508 123.675C85.2739 118.475 85.2739 110.674 85.2739 109.23C85.2739 107.785 88.4565 111.396 92.4846 105.474L92.484 105.474Z" fill="#FB896F"/>
<path d="M93.8382 175.889C93.7383 175.889 93.6386 175.882 93.5397 175.867C91.7817 175.607 90.1752 173.244 90.6611 169.377C91.0565 166.229 90.5175 163.738 89.2189 162.715C88.4008 162.071 87.3322 162.039 86.0422 162.622C84.9366 163.121 84.3358 164.626 84.1572 165.764C83.8392 167.789 82.5504 168.611 81.4862 168.516C80.5063 168.43 79.4565 167.515 79.4666 165.71C79.4781 163.644 80.667 161.577 83.0962 159.404C80.7223 158.436 76.8345 158.945 75.214 159.851C74.5915 160.198 73.9339 160.154 73.4547 159.731C72.9477 159.283 72.7456 158.499 72.9631 157.824C73.0838 157.448 73.524 156.566 74.9982 156.484C77.7928 156.327 81.863 154.31 82.2366 150.929C82.6435 147.247 83.0642 138.25 83.0642 136.86C83.0642 136.685 82.8875 136.577 82.3899 136.362C81.9 136.151 81.2903 135.888 81.0786 135.226C80.8951 134.652 81.0606 133.942 81.599 132.991C82.0512 132.192 82.5123 131.53 82.9582 130.89C84.2892 128.978 85.3409 127.468 85.1401 123.699C84.8988 119.163 84.8627 112.686 84.8627 109.229C84.8627 108.956 84.944 108.745 85.1048 108.602C85.3847 108.352 85.7593 108.414 86.2331 108.493C87.3938 108.685 89.5538 109.042 92.1493 105.225C92.1986 105.152 92.2685 105.097 92.3491 105.068C92.4297 105.039 92.5171 105.036 92.5991 105.061C92.6811 105.086 92.7536 105.137 92.8066 105.207C92.8596 105.277 92.8904 105.362 92.8947 105.451C92.9679 106.92 92.9791 108.253 92.9889 109.429C93.0199 113.096 93.0421 115.746 94.7694 119.14C97.9419 125.374 101.12 132.177 98.6564 133.993C97.7515 134.66 97.0135 135.061 96.3518 134.851C95.5677 134.604 95.2106 133.659 94.5785 131.948C94.4314 134.556 94.7127 141.398 94.8926 145.773C95.0008 148.401 95.0939 150.67 95.0939 151.7C95.0939 153.316 97.0025 154.347 98.8481 155.344C100.89 156.448 103.002 157.589 102.842 159.679C102.787 160.394 102.571 160.863 102.18 161.114C101.501 161.551 100.582 161.16 99.5172 160.708C97.8345 159.993 96.5818 159.578 95.781 160.759C94.0173 163.362 94.7338 166.523 95.3661 169.312C95.7375 170.95 96.0883 172.497 95.901 173.777C95.6835 175.264 94.7529 175.889 93.8377 175.889L93.8382 175.889ZM87.7241 161.352C88.6117 161.352 89.2651 161.677 89.7137 162.03C91.2745 163.26 91.9167 165.978 91.4758 169.489C91.008 173.213 92.5644 174.856 93.6553 175.018C94.4007 175.128 94.9499 174.604 95.0895 173.649C95.2527 172.533 94.9197 171.065 94.5673 169.51C93.8949 166.545 93.133 163.183 95.1109 160.265C96.3499 158.437 98.3598 159.291 99.8275 159.914C100.576 160.233 101.425 160.593 101.75 160.385C101.936 160.265 102.001 159.898 102.023 159.611C102.14 158.089 100.358 157.126 98.4713 156.107C96.4071 154.992 94.2728 153.839 94.2728 151.7C94.2728 150.689 94.18 148.428 94.0724 145.81C93.4901 131.647 93.6621 130.408 94.346 130.257C94.7954 130.158 94.992 130.687 95.0665 130.886C95.1574 131.129 95.2426 131.359 95.3231 131.577C95.8213 132.927 96.1814 133.902 96.5909 134.031C96.873 134.12 97.3785 133.885 98.1831 133.292C100.262 131.761 95.9051 123.199 94.0444 119.543C92.2229 115.963 92.1986 113.083 92.1679 109.437C92.1605 108.553 92.1528 107.648 92.1221 106.668C89.5185 109.905 87.2456 109.529 86.1055 109.341C85.9628 109.317 85.7949 109.289 85.6854 109.282C85.6857 112.744 85.7224 119.16 85.9615 123.652C86.1784 127.726 84.9944 129.426 83.6237 131.394C83.1891 132.018 82.7394 132.664 82.3072 133.428C81.8123 134.302 81.7902 134.741 81.8589 134.955C81.9517 135.245 82.3176 135.403 82.7049 135.57C83.2036 135.786 83.8866 136.081 83.8866 136.86C83.8866 138.261 83.4632 147.322 83.0535 151.027C82.6085 155.053 78.0102 157.174 75.0428 157.34C74.3488 157.379 73.8871 157.648 73.7425 158.097C73.6316 158.442 73.7337 158.853 73.9857 159.076C74.2078 159.272 74.4987 159.278 74.827 159.095C76.7616 158.014 81.4289 157.396 84.0567 158.928C84.1153 158.962 84.165 159.011 84.2014 159.07C84.2379 159.129 84.2599 159.196 84.2656 159.266C84.2713 159.336 84.2605 159.406 84.2342 159.471C84.2078 159.535 84.1667 159.592 84.1145 159.636C81.5511 161.797 80.2998 163.785 80.2891 165.715C80.282 166.982 80.9203 167.605 81.556 167.661C82.2544 167.723 83.1138 167.112 83.3471 165.625C83.5698 164.209 84.3089 162.47 85.7172 161.834C86.4876 161.486 87.1547 161.352 87.7252 161.352H87.7241Z" fill="#692324"/>
<path d="M88.6685 109.241C88.5946 109.241 88.5221 109.22 88.4586 109.181C88.3951 109.141 88.3429 109.085 88.3075 109.017C87.7168 107.887 87.8157 106.218 87.9203 104.452C88.0246 102.691 88.1325 100.87 87.5429 99.6194C87.4971 99.5176 87.4913 99.4012 87.5269 99.2951C87.5625 99.189 87.6366 99.1018 87.7332 99.0521C87.8298 99.0025 87.9412 98.9944 88.0434 99.0296C88.1457 99.0649 88.2306 99.1406 88.2799 99.2405C88.9659 100.696 88.8512 102.632 88.7403 104.505C88.6433 106.144 88.5516 107.693 89.0289 108.606C89.063 108.672 89.0803 108.745 89.079 108.819C89.0777 108.894 89.0579 108.966 89.0215 109.03C88.9852 109.094 88.9335 109.147 88.8716 109.184C88.8097 109.221 88.7397 109.241 88.6685 109.241Z" fill="#692324"/>
<path d="M85.2794 96.621C84.3228 100.31 87.1135 102.061 88.3963 101.812C91.1095 101.284 91.603 97.6008 89.1552 95.4545C89.598 93.3357 89.3444 88.8687 87.2841 86.658C87.2841 90.8446 85.7628 94.7575 85.2794 96.621Z" fill="#FDDE5F"/>
</g>
<g clip-path="url(#clip6_1_809)">
<path d="M165.494 260.806C166.245 258.656 168.087 258.97 171.407 259.942C174.726 260.914 182.609 261.243 187.07 259.999C191.53 258.754 195.161 258.363 193.19 262.825C191.219 267.287 180.535 280.254 177.319 279.656C174.104 279.059 164.249 264.37 165.494 260.806Z" fill="#FB896F"/>
<path d="M177.521 280.102C177.426 280.102 177.335 280.094 177.247 280.077C175.049 279.669 170.468 273.783 167.567 268.543C166.11 265.908 164.5 262.402 165.108 260.66C165.994 258.122 168.222 258.565 171.518 259.531C174.591 260.43 182.431 260.85 186.964 259.586C190.93 258.479 192.896 258.458 193.751 259.514C194.341 260.241 194.279 261.383 193.563 263.003C191.715 267.187 181.371 280.101 177.521 280.101V280.102ZM165.88 260.953C165.501 262.038 166.398 264.716 168.279 268.116C171.268 273.517 175.696 278.921 177.392 279.236C177.45 279.246 177.509 279.251 177.568 279.251C180.574 279.252 190.775 267.269 192.817 262.646C193.203 261.773 193.57 260.616 193.123 260.065C192.256 258.994 188.433 260.061 187.177 260.412C182.728 261.653 174.851 261.395 171.296 260.354C167.752 259.316 166.472 259.257 165.88 260.953Z" fill="#692324"/>
<path d="M176.647 279.654C176.333 279.654 175.931 279.508 175.444 279.04C175.368 278.962 175.324 278.856 175.321 278.745C175.319 278.634 175.358 278.526 175.43 278.444C175.503 278.363 175.603 278.314 175.709 278.308C175.816 278.301 175.921 278.339 176.001 278.411C176.311 278.709 176.587 278.85 176.721 278.782C176.925 278.679 177.27 277.975 177.117 276.055C176.918 273.543 172.392 266.425 169.545 263.11C167.953 261.256 167.493 261.471 167.489 261.473C167.348 261.548 167.194 262.194 167.451 263.414C167.474 263.525 167.453 263.64 167.395 263.735C167.336 263.83 167.244 263.897 167.138 263.921C167.032 263.945 166.921 263.925 166.829 263.864C166.738 263.804 166.673 263.708 166.649 263.598C166.462 262.712 166.274 261.16 167.114 260.712C167.804 260.344 168.77 260.926 170.157 262.54C173.065 265.926 177.716 273.225 177.936 275.984C178.045 277.357 177.985 279.091 177.081 279.551C176.946 279.619 176.797 279.655 176.647 279.654Z" fill="#692324"/>
<path d="M163.627 272.363C161.831 272.649 157.714 275.053 153.772 273.492C149.831 271.931 147.548 270.234 147.03 273.189C146.511 276.143 150.142 279.05 154.706 278.087C159.27 277.124 165.386 274.797 165.386 274.797L163.627 272.363Z" fill="#FB896F"/>
<path d="M152.952 278.699C150.962 278.699 149.117 278.009 147.882 276.748C146.861 275.705 146.403 274.379 146.626 273.112C146.783 272.217 147.108 271.641 147.62 271.352C148.595 270.802 150.004 271.416 151.954 272.265C152.543 272.521 153.211 272.812 153.918 273.092C156.729 274.205 159.622 273.208 161.734 272.481C162.455 272.232 163.077 272.018 163.564 271.94C163.638 271.929 163.713 271.938 163.781 271.967C163.85 271.996 163.91 272.044 163.955 272.106L165.714 274.54C165.752 274.593 165.779 274.655 165.79 274.721C165.802 274.787 165.798 274.854 165.78 274.918C165.762 274.982 165.729 275.041 165.685 275.09C165.641 275.138 165.587 275.175 165.527 275.198C165.465 275.222 159.329 277.548 154.787 278.506C154.183 278.634 153.569 278.698 152.952 278.699V278.699ZM148.494 271.996C148.305 271.996 148.143 272.03 148.012 272.104C147.732 272.262 147.543 272.642 147.433 273.265C147.258 274.264 147.622 275.284 148.457 276.138C149.568 277.272 151.772 278.27 154.624 277.668C158.337 276.885 163.149 275.168 164.722 274.589L163.452 272.832C163.059 272.924 162.557 273.097 161.992 273.292C159.889 274.017 156.71 275.112 153.626 273.891C152.906 273.606 152.232 273.312 151.637 273.054C150.313 272.477 149.209 271.996 148.494 271.996Z" fill="#692324"/>
<path d="M177.565 263.29C179.026 263.77 180.089 264.66 178.911 266.189C177.734 267.719 175.348 265.757 175.348 264.74C175.348 263.723 176.534 262.952 177.565 263.291L177.565 263.29ZM183.128 266.752C181.794 267.377 183.751 270.227 184.373 268.811C184.995 267.395 184.269 266.218 183.128 266.752ZM179.563 271.569C178.432 271.322 177.882 273.217 179.416 273.492C180.95 273.767 180.873 271.856 179.563 271.569Z" fill="white"/>
<path d="M173.55 267.875C171.447 269.406 167.596 272.37 164.768 271.255C161.552 269.987 158.44 268.455 157.299 268.141C156.158 267.827 162.278 271.399 162.797 274.797C163.316 278.195 162.797 278.526 163.419 279.656C164.041 280.787 165.079 276.719 167.05 275.405C168.372 274.523 172.445 271.859 174.985 270.199C174.524 269.413 174.046 268.638 173.55 267.875L173.55 267.875Z" fill="#FB896F"/>
<path d="M163.662 280.28H163.659C163.49 280.279 163.249 280.208 163.063 279.869C162.678 279.17 162.67 278.71 162.656 277.947C162.645 277.302 162.628 276.417 162.391 274.864C162.059 272.687 159.113 270.323 157.697 269.186C156.823 268.485 156.615 268.318 156.791 267.946C156.852 267.818 157.012 267.62 157.404 267.728C158.039 267.903 159.201 268.413 160.671 269.059C161.957 269.623 163.415 270.264 164.913 270.854C167.411 271.839 170.925 269.272 173.023 267.738L173.315 267.525C173.36 267.492 173.41 267.469 173.463 267.457C173.516 267.445 173.571 267.444 173.625 267.455C173.678 267.465 173.729 267.486 173.775 267.517C173.82 267.548 173.86 267.588 173.89 267.635C174.39 268.404 174.872 269.184 175.336 269.976C175.392 270.072 175.41 270.187 175.385 270.297C175.36 270.406 175.295 270.501 175.204 270.561C172.815 272.122 168.608 274.873 167.271 275.765C166.374 276.363 165.663 277.63 165.092 278.648C164.521 279.665 164.176 280.28 163.662 280.28V280.28ZM159.236 269.359C160.818 270.696 162.894 272.71 163.202 274.73C163.448 276.342 163.466 277.298 163.477 277.931C163.489 278.581 163.494 278.883 163.711 279.32C163.894 279.089 164.17 278.597 164.383 278.217C164.998 277.12 165.764 275.755 166.828 275.045C168.106 274.193 171.992 271.651 174.423 270.063C174.104 269.529 173.777 269 173.443 268.476C171.205 270.112 167.506 272.792 164.622 271.655C163.11 271.058 161.645 270.415 160.352 269.847C159.962 269.676 159.587 269.511 159.236 269.359L159.236 269.359ZM169.949 245.183C168.923 243.878 174.306 241.621 174.928 243.402C175.551 245.183 170.883 246.371 169.949 245.183Z" fill="#692324"/>
<path d="M168.497 246.089C168.405 246.088 168.315 246.055 168.242 245.995C168.17 245.935 168.119 245.851 168.099 245.756C168.078 245.662 168.088 245.564 168.128 245.477C168.168 245.389 168.235 245.319 168.319 245.276L171.223 243.817C171.321 243.768 171.434 243.761 171.537 243.799C171.64 243.836 171.724 243.914 171.771 244.017C171.819 244.119 171.825 244.236 171.789 244.343C171.753 244.45 171.678 244.538 171.58 244.587L168.676 246.046C168.618 246.075 168.557 246.089 168.497 246.089ZM168.497 256.191C168.409 256.191 168.324 256.162 168.253 256.108C168.182 256.054 168.13 255.977 168.104 255.89C168.078 255.802 168.08 255.708 168.109 255.622C168.138 255.536 168.193 255.461 168.266 255.41C168.301 255.385 171.794 252.899 172.467 250.938C172.485 250.884 172.512 250.835 172.548 250.792C172.585 250.75 172.628 250.716 172.677 250.691C172.726 250.667 172.779 250.653 172.834 250.65C172.888 250.647 172.942 250.655 172.993 250.674C173.045 250.693 173.092 250.722 173.132 250.76C173.172 250.799 173.204 250.845 173.227 250.896C173.25 250.947 173.263 251.003 173.266 251.059C173.268 251.116 173.259 251.172 173.24 251.225C172.478 253.449 168.88 256.01 168.728 256.118C168.66 256.166 168.579 256.191 168.497 256.191Z" fill="#692324"/>
<path d="M170.751 254.32C170.666 254.32 170.582 254.292 170.513 254.24C170.443 254.189 170.391 254.116 170.363 254.032L169.432 251.221C169.397 251.114 169.405 250.997 169.452 250.896C169.5 250.795 169.585 250.717 169.687 250.68C169.789 250.644 169.902 250.65 169.999 250.699C170.097 250.748 170.172 250.836 170.208 250.942L171.139 253.753C171.161 253.817 171.167 253.886 171.158 253.954C171.148 254.021 171.124 254.085 171.086 254.141C171.048 254.196 170.998 254.241 170.939 254.273C170.881 254.304 170.817 254.32 170.751 254.32ZM166.768 240.178C167.627 236.726 167.65 230.225 163.541 228.559C159.433 226.893 155.914 228.998 154.508 230.205C153.103 231.412 166.042 243.094 166.768 240.178Z" fill="#692324"/>
<path d="M154.662 237.276C153.113 235.634 150.921 233.988 153.103 231.412C155.284 228.837 159.641 228.263 162.649 231.412C165.657 234.561 169.164 241.149 164.506 241.473C159.848 241.798 156.236 238.944 154.662 237.276Z" fill="#FB896F"/>
<path d="M163.773 241.926C158.871 241.926 155.364 238.629 154.369 237.575C154.204 237.401 154.032 237.226 153.859 237.05C152.402 235.572 150.59 233.733 152.795 231.13C153.98 229.731 155.737 228.895 157.617 228.836C159.592 228.773 161.48 229.582 162.94 231.111C165.104 233.375 167.892 237.865 167.007 240.309C166.766 240.973 166.142 241.788 164.534 241.9C164.277 241.918 164.023 241.926 163.773 241.926ZM154.955 236.976C155.938 238.018 159.531 241.391 164.479 241.047C165.434 240.98 166.009 240.64 166.239 240.007C166.894 238.199 164.719 234.185 162.358 231.714C161.06 230.355 159.387 229.636 157.641 229.691C155.988 229.742 154.446 230.473 153.411 231.695C151.722 233.688 152.978 234.962 154.432 236.438C154.609 236.618 154.786 236.797 154.955 236.976Z" fill="#692324"/>
<path d="M156.908 234.95C155.819 235.636 146.986 241.69 145.533 242.877C144.081 244.065 151.025 250.006 153.103 248.062C155.18 246.117 155.722 243.087 160.815 236.937C161.508 236.1 158.241 234.11 156.907 234.95L156.908 234.95Z" fill="#FB896F"/>
<path d="M151.988 248.875C151.588 248.875 151.103 248.792 150.519 248.578C148.103 247.696 145.185 245.062 144.943 243.544C144.877 243.129 144.997 242.773 145.28 242.541C146.716 241.367 155.571 235.293 156.695 234.585C157.96 233.788 160.232 234.936 160.983 235.86C161.564 236.577 161.24 237.08 161.126 237.217C158.3 240.629 156.871 243.101 155.827 244.906C154.963 246.4 154.339 247.48 153.377 248.38C153.104 248.636 152.666 248.875 151.988 248.875ZM157.722 235.174C157.48 235.174 157.272 235.22 157.12 235.316C156.002 236.02 147.209 242.051 145.787 243.213C145.767 243.23 145.73 243.26 145.753 243.403C145.93 244.513 148.565 246.959 150.791 247.771C151.449 248.012 152.338 248.202 152.828 247.743C153.698 246.93 154.296 245.896 155.123 244.465C156.182 242.633 157.632 240.126 160.504 236.658C160.502 236.586 160.292 236.213 159.591 235.787C158.941 235.392 158.249 235.174 157.722 235.174Z" fill="#692324"/>
<path d="M149.994 243.769C148.139 242.453 146.62 242.082 145.533 242.878C144.833 243.391 145.171 245.551 147.504 247.387C149.838 249.223 152.009 249.244 153.102 248.062C153.689 247.428 151.159 244.596 149.994 243.769ZM157.1 235.284C157.002 235.284 156.908 235.247 156.833 235.182C156.415 234.811 156.452 233.733 156.646 231.179L156.69 230.587C156.693 230.53 156.707 230.475 156.731 230.424C156.755 230.373 156.789 230.328 156.83 230.29C156.871 230.253 156.919 230.225 156.97 230.207C157.022 230.189 157.077 230.182 157.131 230.186C157.185 230.19 157.238 230.206 157.287 230.232C157.335 230.257 157.378 230.293 157.414 230.336C157.449 230.38 157.475 230.43 157.492 230.484C157.508 230.538 157.514 230.595 157.509 230.652L157.464 231.247C157.38 232.354 157.241 234.198 157.397 234.562C157.452 234.623 157.489 234.699 157.504 234.781C157.518 234.863 157.508 234.948 157.477 235.025C157.445 235.102 157.392 235.167 157.325 235.213C157.258 235.259 157.18 235.284 157.099 235.284L157.1 235.284ZM159.984 235.965C159.908 235.965 159.834 235.944 159.77 235.903C159.706 235.862 159.653 235.803 159.619 235.733C159.584 235.664 159.569 235.585 159.574 235.507C159.58 235.429 159.606 235.354 159.65 235.29L161.096 233.179C161.16 233.089 161.255 233.028 161.362 233.01C161.468 232.993 161.577 233.019 161.665 233.085C161.753 233.15 161.812 233.248 161.831 233.359C161.849 233.469 161.826 233.583 161.764 233.676L160.318 235.786C160.28 235.842 160.23 235.887 160.172 235.918C160.113 235.949 160.049 235.965 159.984 235.965ZM162.632 237.257C161.787 237.257 160.952 237.064 160.812 237.03C160.706 237.004 160.614 236.935 160.557 236.839C160.499 236.743 160.481 236.627 160.505 236.516C160.53 236.406 160.596 236.31 160.688 236.25C160.781 236.19 160.892 236.171 160.998 236.197C161.716 236.37 163.056 236.534 163.598 236.235C163.694 236.182 163.807 236.171 163.911 236.205C164.015 236.238 164.102 236.313 164.153 236.413C164.204 236.513 164.215 236.631 164.182 236.739C164.15 236.847 164.078 236.938 163.982 236.991C163.619 237.191 163.123 237.257 162.632 237.257Z" fill="#692324"/>
</g>
<defs>
<clipPath id="clip0_1_809">
<rect width="174.9" height="153.01" fill="white" transform="translate(15.125 8.008)"/>
</clipPath>
<clipPath id="clip1_1_809">
<rect width="148.775" height="158.73" fill="white" transform="matrix(-1 0 0 1 255.75 64.35)"/>
</clipPath>
<clipPath id="clip2_1_809">
<rect width="223.427" height="222.824" fill="white" transform="translate(32.7258 50.3701)"/>
</clipPath>
<clipPath id="clip3_1_809">
<rect width="93.5" height="92.378" fill="white" transform="translate(53.075 153.01)"/>
</clipPath>
<clipPath id="clip4_1_809">
<rect width="26.95" height="61.776" fill="white" transform="translate(33.55 177.32)"/>
</clipPath>
<clipPath id="clip5_1_809">
<rect width="29.975" height="89.232" fill="white" transform="translate(72.875 86.658)"/>
</clipPath>
<clipPath id="clip6_1_809">
<rect width="49.225" height="52.338" fill="white" transform="translate(144.925 227.942)"/>
</clipPath>
</defs>
</svg>
