<svg width="233" height="233" viewBox="0 0 233 233" fill="none" xmlns="http://www.w3.org/2000/svg">
<path d="M95.3506 127.478L76.9659 154.637C76.5687 155.221 75.9956 155.662 75.3307 155.896C74.6657 156.129 73.9438 156.143 73.2705 155.935C72.5971 155.727 72.0078 155.308 71.5887 154.74C71.1696 154.171 70.9426 153.483 70.9412 152.775V128.818C70.9406 128.642 70.9745 128.468 71.0411 128.306C71.1077 128.143 71.2055 127.995 71.3291 127.871C71.4527 127.746 71.5995 127.648 71.7612 127.58C71.9228 127.513 72.0962 127.478 72.2712 127.478H95.3506Z" fill="#393136"/>
<path d="M103.039 116.528L85.4515 134.212C84.6614 135.008 83.7225 135.64 82.6886 136.071C81.6547 136.502 80.5463 136.724 79.4268 136.724C78.3073 136.724 77.1988 136.502 76.1649 136.071C75.131 135.64 74.1921 135.008 73.402 134.212C72.6118 133.419 71.985 132.478 71.5573 131.442C71.1296 130.406 70.9095 129.295 70.9095 128.174C70.9095 127.052 71.1296 125.942 71.5573 124.906C71.985 123.87 72.6118 122.928 73.402 122.136L91.0128 104.452C91.8029 103.655 92.7418 103.023 93.7757 102.592C94.8096 102.161 95.918 101.939 97.0375 101.939C98.157 101.939 99.2655 102.161 100.299 102.592C101.333 103.023 102.272 103.655 103.062 104.452C104.653 106.057 105.544 108.23 105.539 110.495C105.535 112.759 104.636 114.929 103.039 116.528Z" fill="#393136"/>
<path d="M130.605 116.528L148.192 134.212C148.982 135.008 149.921 135.64 150.955 136.071C151.989 136.502 153.097 136.724 154.217 136.724C155.336 136.724 156.445 136.502 157.479 136.071C158.513 135.64 159.452 135.008 160.242 134.212C161.032 133.419 161.659 132.478 162.086 131.442C162.514 130.406 162.734 129.295 162.734 128.174C162.734 127.052 162.514 125.942 162.086 124.906C161.659 123.87 161.032 122.928 160.242 122.136L142.654 104.452C141.864 103.655 140.925 103.023 139.891 102.592C138.857 102.161 137.749 101.939 136.629 101.939C135.51 101.939 134.401 102.161 133.367 102.592C132.334 103.023 131.395 103.655 130.605 104.452C129.011 106.054 128.116 108.226 128.116 110.49C128.116 112.754 129.011 114.926 130.605 116.528Z" fill="#393136"/>
<path d="M108.879 98.1831H124.765C129.252 98.1831 133.554 99.9727 136.726 103.158C139.899 106.344 141.681 110.664 141.681 115.169V188.599H91.9629V115.164C91.9641 110.66 93.7468 106.341 96.919 103.157C100.091 99.972 104.393 98.1831 108.879 98.1831Z" fill="#393136"/>
<path d="M96.9257 75.535L109.975 62.4317C111.791 60.6077 114.255 59.583 116.824 59.583C119.393 59.583 121.856 60.6078 123.673 62.4318L136.722 75.535C139.814 78.6402 141.552 82.8517 141.552 87.2431C141.552 91.6344 139.814 95.8459 136.722 98.9511L123.673 112.054C121.856 113.878 119.393 114.903 116.824 114.903C114.255 114.903 111.791 113.878 109.975 112.054L96.9257 98.9511C95.3945 97.4136 94.18 95.5883 93.3513 93.5794C92.5226 91.5705 92.0961 89.4174 92.0961 87.2431C92.0961 85.0687 92.5226 82.9156 93.3513 80.9067C94.18 78.8978 95.3945 77.0725 96.9257 75.535Z" fill="#393136"/>
<path d="M116.451 74.04C119.762 74.04 122.938 75.3608 125.279 77.712C127.621 80.0631 128.936 83.2519 128.936 86.5769V91.7843C128.936 93.0186 128.448 94.2022 127.579 95.075C126.71 95.9477 125.531 96.438 124.302 96.438H108.61C107.381 96.438 106.202 95.9477 105.333 95.075C104.464 94.2022 103.975 93.0186 103.975 91.7843V86.5769C103.975 83.2535 105.289 80.0661 107.629 77.7153C109.968 75.3644 113.141 74.0425 116.451 74.04Z" fill="#F7EBD3"/>
<path d="M122.986 93.5435H109.917V99.7654H122.986V93.5435Z" fill="#F7EBD3"/>
<path d="M109.917 98.5044H113.226V101.031C113.226 101.288 113.124 101.535 112.944 101.717C112.763 101.9 112.518 102.003 112.262 102.004H110.871C110.615 102.003 110.37 101.9 110.189 101.717C110.009 101.535 109.907 101.288 109.907 101.031L109.917 98.5044Z" fill="#F7EBD3"/>
<path d="M114.866 98.5044H118.036V101.031C118.035 101.289 117.932 101.536 117.751 101.718C117.57 101.9 117.324 102.003 117.067 102.004H115.83C115.574 102.003 115.329 101.9 115.148 101.717C114.968 101.535 114.866 101.288 114.866 101.031V98.5044Z" fill="#F7EBD3"/>
<path d="M119.672 98.5044H122.981V101.031C122.981 101.288 122.88 101.535 122.699 101.717C122.518 101.9 122.273 102.003 122.017 102.004H120.627C120.37 102.004 120.123 101.901 119.942 101.719C119.76 101.537 119.658 101.289 119.658 101.031L119.672 98.5044Z" fill="#F7EBD3"/>
<path d="M122.235 87.4521L119.352 88.7644C118.947 88.9486 118.602 89.2463 118.361 89.6218C118.119 89.9973 117.99 90.4348 117.99 90.8818C117.99 91.4989 118.234 92.0908 118.668 92.5271C119.103 92.9635 119.692 93.2087 120.307 93.2087H123.31C123.925 93.2087 124.514 92.9635 124.949 92.5271C125.383 92.0908 125.627 91.4989 125.627 90.8818V89.5695C125.627 88.9524 125.383 88.3606 124.949 87.9242C124.514 87.4878 123.925 87.2427 123.31 87.2427H123.19C122.86 87.2435 122.535 87.3149 122.235 87.4521Z" fill="#524348"/>
<path d="M110.663 87.4521L113.55 88.7644C113.955 88.9493 114.298 89.2472 114.539 89.6227C114.78 89.9981 114.908 90.4352 114.908 90.8818C114.908 91.4989 114.664 92.0908 114.229 92.5271C113.795 92.9635 113.205 93.2086 112.591 93.2086H109.583C108.968 93.2086 108.379 92.9635 107.944 92.5271C107.51 92.0908 107.266 91.4989 107.266 90.8818V89.5695C107.266 88.9524 107.51 88.3605 107.944 87.9242C108.379 87.4878 108.968 87.2427 109.583 87.2427H109.703C110.035 87.2415 110.362 87.313 110.663 87.4521Z" fill="#524348"/>
<path d="M114.996 97.8438C114.71 97.8425 114.436 97.7279 114.234 97.5248C114.031 97.3218 113.917 97.0467 113.916 96.7595V94.9632C113.916 94.8208 113.944 94.6798 113.998 94.5482C114.053 94.4167 114.132 94.2971 114.232 94.1964C114.333 94.0958 114.452 94.0159 114.583 93.9614C114.714 93.9069 114.854 93.8789 114.996 93.8789C115.138 93.8789 115.278 93.9069 115.409 93.9614C115.54 94.0159 115.659 94.0958 115.759 94.1964C115.86 94.2971 115.939 94.4167 115.994 94.5482C116.048 94.6798 116.076 94.8208 116.076 94.9632V96.7595C116.076 97.047 115.962 97.3228 115.759 97.5262C115.557 97.7295 115.282 97.8438 114.996 97.8438Z" fill="#524348"/>
<path d="M117.902 97.8438C117.615 97.8438 117.341 97.7295 117.138 97.5262C116.936 97.3228 116.822 97.047 116.822 96.7595V94.9632C116.822 94.8208 116.85 94.6798 116.904 94.5482C116.958 94.4167 117.038 94.2971 117.138 94.1964C117.238 94.0958 117.357 94.0159 117.488 93.9614C117.62 93.9069 117.76 93.8789 117.902 93.8789C118.044 93.8789 118.184 93.9069 118.315 93.9614C118.446 94.0159 118.565 94.0958 118.665 94.1964C118.766 94.2971 118.845 94.4167 118.899 94.5482C118.954 94.6798 118.982 94.8208 118.982 94.9632V96.7595C118.982 97.047 118.868 97.3228 118.665 97.5262C118.463 97.7295 118.188 97.8438 117.902 97.8438Z" fill="#524348"/>
<path d="M81.7625 189.358C80.8464 189.356 79.9682 188.99 79.3209 188.339C78.6735 187.688 78.3099 186.806 78.3099 185.886L78.3562 43.3124C78.3635 42.3981 78.7297 41.5236 79.3753 40.8788C80.0209 40.2341 80.8937 39.8711 81.8042 39.8687C82.7212 39.8687 83.6005 40.2344 84.2489 40.8855C84.8973 41.5365 85.2615 42.4195 85.2615 43.3403L85.2152 185.909C85.209 186.825 84.8427 187.701 84.196 188.347C83.5493 188.993 82.6746 189.356 81.7625 189.358Z" fill="#846351"/>
<path d="M138.2 60.391C135.071 52.6197 129.163 46.3025 121.636 42.6782C114.108 39.0538 105.504 38.3837 97.5103 40.7992L75.8444 47.3934C75.3759 47.534 74.9652 47.8229 74.6737 48.2171C74.3822 48.6113 74.2255 49.0896 74.227 49.5806V59.935C74.225 60.2374 74.2938 60.5361 74.4278 60.807C74.5618 61.0778 74.7573 61.3133 74.9985 61.4944C75.2398 61.6755 75.52 61.7972 75.8166 61.8497C76.1133 61.9021 76.418 61.8839 76.7064 61.7964L101.528 54.2156C107.315 52.4618 113.466 52.3146 119.329 53.7894C125.192 55.2643 130.547 58.3063 134.827 62.5922C135.162 62.9269 135.601 63.1354 136.072 63.1829C136.542 63.2304 137.014 63.1138 137.409 62.8528C137.804 62.5918 138.097 62.2023 138.239 61.7497C138.382 61.2972 138.365 60.8092 138.191 60.3678L138.2 60.391Z" fill="#B6B0B6"/>
<path d="M138.673 136.836H154.069C155.187 136.837 156.294 136.616 157.327 136.187C158.36 135.757 159.298 135.128 160.088 134.334C160.879 133.54 161.505 132.597 161.932 131.56C162.359 130.522 162.579 129.41 162.577 128.288C162.577 127.166 162.357 126.055 161.93 125.019C161.502 123.982 160.875 123.041 160.085 122.248C159.295 121.455 158.357 120.826 157.325 120.397C156.292 119.968 155.186 119.748 154.069 119.748H138.673C136.418 119.748 134.255 120.648 132.66 122.249C131.065 123.851 130.169 126.023 130.169 128.288C130.168 129.41 130.387 130.521 130.814 131.558C131.241 132.596 131.867 133.538 132.657 134.332C133.446 135.126 134.384 135.756 135.417 136.186C136.449 136.615 137.556 136.836 138.673 136.836Z" fill="#393136"/>
<path d="M85.5581 133.169C85.722 133.17 85.8842 133.136 86.0346 133.071C86.1851 133.006 86.3206 132.91 86.4327 132.79C86.5448 132.67 86.6312 132.528 86.6864 132.373C86.7417 132.219 86.7646 132.054 86.7538 131.89C86.7269 131.58 86.5843 131.293 86.3547 131.085C86.1252 130.876 85.8256 130.763 85.5164 130.768H81.6467C81.5324 130.768 81.4227 130.723 81.3419 130.641C81.2611 130.56 81.2157 130.45 81.2157 130.335V129.405C81.2157 129.348 81.2267 129.292 81.2485 129.24C81.2702 129.187 81.3021 129.14 81.3422 129.1C81.3823 129.06 81.4298 129.029 81.4821 129.008C81.5343 128.986 81.5903 128.976 81.6467 128.976H85.5164C85.8261 128.98 86.1256 128.866 86.3551 128.657C86.5845 128.448 86.7269 128.16 86.7538 127.85C86.7646 127.686 86.7417 127.521 86.6864 127.366C86.6312 127.212 86.5448 127.07 86.4327 126.95C86.3206 126.83 86.1851 126.734 86.0346 126.669C85.8842 126.604 85.722 126.57 85.5581 126.571H76.9103C76.6019 126.567 76.3035 126.681 76.0749 126.889C75.8463 127.097 75.7044 127.383 75.6775 127.692C75.6661 127.857 75.6885 128.022 75.7434 128.177C75.7984 128.333 75.8846 128.475 75.9968 128.596C76.109 128.716 76.2447 128.812 76.3955 128.878C76.5463 128.943 76.7089 128.977 76.8732 128.976H76.9103C76.9667 128.976 77.0226 128.986 77.0749 129.008C77.1271 129.029 77.1747 129.06 77.2148 129.1C77.2549 129.14 77.2867 129.187 77.3084 129.24C77.3301 129.292 77.3413 129.348 77.3413 129.405V130.335C77.3413 130.392 77.3301 130.448 77.3085 130.501C77.2868 130.553 77.2551 130.601 77.2151 130.641C77.175 130.682 77.1275 130.713 77.0752 130.735C77.0229 130.757 76.9669 130.768 76.9103 130.768C76.6016 130.763 76.3026 130.877 76.0738 131.085C75.8449 131.293 75.7033 131.581 75.6775 131.89C75.6667 132.054 75.6897 132.219 75.7449 132.373C75.8001 132.528 75.8864 132.67 75.9985 132.79C76.1106 132.91 76.2462 133.006 76.3967 133.071C76.5471 133.136 76.7093 133.17 76.8732 133.169H76.9103C77.0246 133.169 77.1342 133.215 77.2151 133.296C77.2959 133.377 77.3413 133.487 77.3413 133.602V134.533C77.3413 134.59 77.3301 134.646 77.3084 134.698C77.2867 134.75 77.2549 134.797 77.2148 134.837C77.1747 134.877 77.1271 134.909 77.0749 134.93C77.0226 134.951 76.9667 134.962 76.9103 134.961C76.6011 134.958 76.3021 135.072 76.0734 135.281C75.8447 135.49 75.7033 135.778 75.6775 136.087C75.6667 136.251 75.6897 136.416 75.7449 136.571C75.8001 136.726 75.8864 136.868 75.9985 136.988C76.1106 137.108 76.2462 137.203 76.3967 137.269C76.5471 137.334 76.7093 137.367 76.8732 137.367H85.5164C85.8256 137.372 86.1252 137.259 86.3547 137.051C86.5843 136.842 86.7269 136.555 86.7538 136.245C86.7652 136.081 86.7427 135.916 86.6878 135.76C86.6328 135.605 86.5467 135.462 86.4345 135.342C86.3223 135.221 86.1865 135.125 86.0357 135.06C85.8849 134.994 85.7224 134.961 85.5581 134.961H81.6467C81.5903 134.962 81.5343 134.951 81.4821 134.93C81.4298 134.909 81.3823 134.877 81.3422 134.837C81.3021 134.797 81.2702 134.75 81.2485 134.698C81.2267 134.646 81.2157 134.59 81.2157 134.533V133.602C81.2157 133.487 81.2611 133.377 81.3419 133.296C81.4227 133.215 81.5324 133.169 81.6467 133.169H85.5581Z" fill="#F7EBD3"/>
<path d="M141.681 136.539C141.369 136.539 141.069 136.663 140.849 136.885C140.628 137.107 140.504 137.407 140.504 137.721V138.87C140.503 139.026 140.533 139.18 140.592 139.324C140.651 139.468 140.737 139.599 140.847 139.709C140.956 139.819 141.086 139.907 141.229 139.966C141.372 140.026 141.526 140.057 141.681 140.057C141.994 140.056 142.293 139.93 142.514 139.708C142.734 139.485 142.858 139.184 142.858 138.87V137.721C142.858 137.407 142.734 137.107 142.513 136.885C142.292 136.663 141.993 136.539 141.681 136.539Z" fill="#5C5054"/>
<path d="M141.681 138.838C141.373 138.834 141.067 138.893 140.782 139.01C140.496 139.127 140.237 139.3 140.019 139.519C139.801 139.738 139.629 139.998 139.512 140.285C139.396 140.571 139.337 140.878 139.341 141.188V144.599H144.021V141.188C144.024 140.878 143.966 140.571 143.849 140.285C143.733 139.998 143.561 139.738 143.343 139.519C143.125 139.3 142.866 139.127 142.58 139.01C142.295 138.893 141.989 138.834 141.681 138.838Z" fill="#524348"/>
<path d="M139.415 129.567H144.021C145.619 129.567 147.152 130.205 148.281 131.339C149.411 132.474 150.046 134.013 150.046 135.617V153.376H133.408V135.599C133.413 134.001 134.048 132.469 135.173 131.339C136.298 130.209 137.823 129.572 139.415 129.567Z" stroke="#5E5357" stroke-width="4.12" stroke-miterlimit="10"/>
<path d="M138.812 141.462H144.545C145.989 141.462 147.374 142.038 148.395 143.064C149.417 144.089 149.99 145.48 149.99 146.93H133.371C133.371 145.481 133.944 144.091 134.965 143.065C135.985 142.04 137.369 141.463 138.812 141.462Z" fill="#524348"/>
<path d="M150.027 149.648H133.408V171.515H150.027V149.648Z" fill="#FAA318" stroke="#524348" stroke-width="6.18" stroke-miterlimit="10"/>
<path d="M133.408 151.468C134.5 151.468 135.58 151.683 136.588 152.103C137.597 152.522 138.513 153.137 139.284 153.911C140.056 154.686 140.668 155.606 141.085 156.618C141.503 157.631 141.718 158.716 141.718 159.812V172.428H133.408V151.486V151.468Z" fill="#FAA318" stroke="#42373B" stroke-width="6.13" stroke-miterlimit="10"/>
<path d="M150.027 151.468V172.409H141.718V159.812C141.718 157.599 142.593 155.476 144.152 153.911C145.71 152.347 147.824 151.468 150.027 151.468Z" fill="#FAA318" stroke="#42373B" stroke-width="6.13" stroke-miterlimit="10"/>
<path d="M151.612 146.451H131.745C130.874 146.451 130.169 147.159 130.169 148.033V149.508C130.169 150.382 130.874 151.091 131.745 151.091H151.612C152.483 151.091 153.188 150.382 153.188 149.508V148.033C153.188 147.159 152.483 146.451 151.612 146.451Z" fill="#42373B"/>
<path d="M132.222 169.598H151.117C151.661 169.598 152.183 169.815 152.568 170.202C152.953 170.589 153.17 171.113 153.17 171.66V173.372C153.17 173.485 153.147 173.597 153.104 173.702C153.061 173.806 152.998 173.901 152.918 173.981C152.839 174.061 152.744 174.124 152.64 174.168C152.536 174.211 152.425 174.233 152.312 174.233H130.994C130.881 174.233 130.77 174.211 130.666 174.168C130.562 174.124 130.467 174.061 130.388 173.981C130.308 173.901 130.245 173.806 130.202 173.702C130.159 173.597 130.137 173.485 130.137 173.372V171.66C130.137 171.386 130.191 171.115 130.296 170.863C130.401 170.611 130.555 170.382 130.749 170.19C130.943 169.998 131.174 169.847 131.426 169.746C131.679 169.644 131.95 169.594 132.222 169.598Z" fill="#5E5357"/>
<path d="M137.566 168.481C137.377 168.481 137.19 168.444 137.016 168.371C136.842 168.299 136.684 168.192 136.551 168.058C136.418 167.924 136.313 167.765 136.241 167.59C136.169 167.415 136.133 167.228 136.133 167.039V159.127C136.133 158.746 136.284 158.38 136.553 158.111C136.821 157.841 137.186 157.689 137.566 157.689C137.945 157.689 138.31 157.841 138.578 158.111C138.847 158.38 138.998 158.746 138.998 159.127V167.039C138.998 167.228 138.962 167.415 138.89 167.59C138.818 167.765 138.713 167.924 138.58 168.058C138.447 168.192 138.289 168.299 138.115 168.371C137.941 168.444 137.754 168.481 137.566 168.481Z" fill="#EDDB95"/>
<path d="M124.543 187.431H91.5041C91.0561 187.431 90.6126 187.342 90.1988 187.17C89.7849 186.998 89.4089 186.746 89.0922 186.428C88.7754 186.11 88.5242 185.732 88.3528 185.317C88.1814 184.901 88.0931 184.456 88.0931 184.006C88.0931 183.556 88.1814 183.111 88.3529 182.696C88.5243 182.281 88.7757 181.903 89.0925 181.586C89.4093 181.268 89.7853 181.016 90.1991 180.844C90.6129 180.673 91.0564 180.585 91.5041 180.585H124.543C125.446 180.585 126.313 180.946 126.951 181.587C127.59 182.229 127.949 183.099 127.949 184.006C127.949 184.913 127.59 185.784 126.952 186.426C126.313 187.068 125.447 187.43 124.543 187.431Z" fill="#393136"/>
<path d="M110.732 192.378H77.6935C77.2458 192.378 76.8025 192.289 76.3889 192.117C75.9753 191.945 75.5996 191.692 75.2833 191.374C74.9669 191.056 74.7161 190.679 74.5452 190.263C74.3743 189.847 74.2866 189.402 74.2872 188.953C74.2872 188.045 74.6461 187.175 75.2849 186.534C75.9237 185.893 76.7901 185.532 77.6935 185.532H110.732C111.18 185.532 111.623 185.62 112.037 185.791C112.451 185.963 112.827 186.215 113.144 186.532C113.461 186.85 113.712 187.227 113.883 187.643C114.055 188.058 114.143 188.503 114.143 188.953C114.144 189.403 114.056 189.848 113.885 190.264C113.714 190.68 113.462 191.058 113.146 191.376C112.829 191.694 112.452 191.946 112.038 192.118C111.624 192.29 111.18 192.378 110.732 192.378Z" fill="#393136"/>
<path d="M146.63 193.955H113.578C113.13 193.956 112.687 193.868 112.273 193.696C111.859 193.525 111.483 193.273 111.166 192.955C110.849 192.637 110.598 192.26 110.427 191.845C110.255 191.43 110.167 190.984 110.167 190.535C110.166 190.085 110.254 189.639 110.425 189.223C110.596 188.808 110.848 188.43 111.165 188.112C111.481 187.793 111.858 187.541 112.272 187.369C112.686 187.197 113.13 187.109 113.578 187.11H146.617C147.064 187.11 147.508 187.198 147.921 187.371C148.335 187.543 148.71 187.795 149.027 188.113C149.343 188.431 149.594 188.809 149.765 189.225C149.936 189.64 150.023 190.085 150.023 190.535C150.023 191.44 149.666 192.308 149.03 192.949C148.394 193.59 147.531 193.952 146.63 193.955Z" fill="#42373B"/>
<path d="M140.481 133.407C140.48 133.572 140.514 133.735 140.579 133.886C140.644 134.038 140.74 134.174 140.86 134.287C140.98 134.399 141.122 134.486 141.276 134.541C141.431 134.596 141.596 134.619 141.76 134.607C142.067 134.58 142.353 134.438 142.56 134.208C142.767 133.979 142.88 133.679 142.877 133.37V129.498C142.877 129.441 142.888 129.385 142.909 129.332C142.931 129.28 142.963 129.232 143.003 129.192C143.043 129.151 143.09 129.12 143.143 129.098C143.195 129.076 143.251 129.065 143.308 129.065H144.234C144.349 129.065 144.458 129.11 144.539 129.192C144.62 129.273 144.665 129.383 144.665 129.498V133.407C144.662 133.716 144.775 134.016 144.982 134.246C145.189 134.475 145.475 134.618 145.782 134.645C145.946 134.656 146.111 134.634 146.266 134.578C146.42 134.523 146.562 134.437 146.682 134.324C146.802 134.211 146.898 134.075 146.963 133.924C147.028 133.772 147.062 133.609 147.061 133.444V124.742C147.065 124.432 146.952 124.132 146.745 123.903C146.538 123.673 146.252 123.531 145.945 123.504C145.778 123.487 145.609 123.505 145.45 123.558C145.291 123.611 145.144 123.696 145.02 123.81C144.896 123.923 144.797 124.061 144.729 124.215C144.662 124.369 144.628 124.536 144.628 124.704V124.742C144.629 124.799 144.618 124.855 144.597 124.908C144.575 124.961 144.544 125.009 144.504 125.049C144.463 125.089 144.416 125.121 144.363 125.143C144.31 125.164 144.254 125.175 144.197 125.174H143.27C143.156 125.174 143.047 125.129 142.966 125.048C142.885 124.967 142.839 124.856 142.839 124.742C142.843 124.432 142.73 124.132 142.523 123.903C142.316 123.673 142.03 123.531 141.723 123.504C141.559 123.492 141.394 123.515 141.239 123.57C141.085 123.625 140.943 123.712 140.823 123.824C140.703 123.937 140.607 124.073 140.542 124.225C140.477 124.376 140.443 124.539 140.443 124.704V124.742C140.444 124.798 140.434 124.854 140.412 124.907C140.391 124.959 140.36 125.007 140.32 125.047C140.281 125.088 140.233 125.12 140.181 125.141C140.129 125.163 140.074 125.174 140.017 125.174H139.09C139.034 125.174 138.978 125.163 138.925 125.142C138.873 125.12 138.826 125.088 138.785 125.048C138.745 125.007 138.714 124.96 138.692 124.907C138.67 124.855 138.659 124.799 138.659 124.742C138.664 124.432 138.551 124.131 138.344 123.902C138.136 123.672 137.85 123.53 137.542 123.504C137.379 123.493 137.214 123.516 137.06 123.571C136.905 123.627 136.764 123.713 136.644 123.826C136.524 123.939 136.428 124.075 136.363 124.226C136.297 124.377 136.264 124.54 136.263 124.704V133.407C136.26 133.717 136.374 134.017 136.582 134.247C136.79 134.477 137.077 134.619 137.385 134.645C137.548 134.655 137.712 134.632 137.867 134.577C138.021 134.522 138.162 134.435 138.282 134.322C138.401 134.21 138.496 134.074 138.561 133.922C138.626 133.771 138.66 133.609 138.659 133.444V129.498C138.659 129.441 138.67 129.385 138.692 129.332C138.714 129.28 138.745 129.232 138.785 129.192C138.826 129.151 138.873 129.12 138.925 129.098C138.978 129.076 139.034 129.065 139.09 129.065H140.017C140.131 129.066 140.239 129.112 140.319 129.193C140.399 129.274 140.444 129.384 140.443 129.498L140.481 133.407Z" fill="#F7EBD3"/>
<path d="M121.92 177.407C121.575 177.408 121.234 177.34 120.916 177.208C120.598 177.076 120.309 176.883 120.065 176.638C119.822 176.394 119.628 176.104 119.496 175.785C119.365 175.466 119.297 175.123 119.297 174.778V145.092C119.282 144.737 119.339 144.383 119.464 144.051C119.589 143.718 119.779 143.415 120.024 143.158C120.269 142.902 120.563 142.698 120.888 142.559C121.214 142.419 121.564 142.347 121.917 142.347C122.271 142.347 122.621 142.419 122.947 142.559C123.272 142.698 123.566 142.902 123.811 143.158C124.056 143.415 124.246 143.718 124.371 144.051C124.496 144.383 124.553 144.737 124.538 145.092V174.778C124.538 175.475 124.262 176.144 123.771 176.637C123.28 177.13 122.614 177.407 121.92 177.407Z" fill="#42373B"/>
<path d="M112.15 174.531C111.594 174.531 111.06 174.309 110.666 173.914C110.272 173.518 110.051 172.982 110.051 172.423V159.365C110.051 158.806 110.272 158.269 110.666 157.874C111.06 157.479 111.594 157.257 112.15 157.257C112.707 157.257 113.241 157.479 113.635 157.874C114.029 158.269 114.25 158.806 114.25 159.365V172.423C114.25 172.982 114.029 173.518 113.635 173.914C113.241 174.309 112.707 174.531 112.15 174.531Z" fill="#42373B"/>
<path d="M112.15 152.906C111.874 152.906 111.601 152.851 111.346 152.745C111.091 152.638 110.859 152.483 110.664 152.286C110.469 152.09 110.315 151.857 110.209 151.601C110.104 151.345 110.05 151.07 110.051 150.793V147.796C110.051 147.237 110.272 146.7 110.666 146.305C111.06 145.91 111.594 145.688 112.15 145.688C112.707 145.688 113.241 145.91 113.635 146.305C114.029 146.7 114.25 147.237 114.25 147.796V150.793C114.25 151.07 114.197 151.345 114.091 151.601C113.986 151.857 113.832 152.09 113.636 152.286C113.441 152.483 113.21 152.638 112.955 152.745C112.7 152.851 112.426 152.906 112.15 152.906Z" fill="#42373B"/>
<path d="M121.92 131.252C121.363 131.252 120.829 131.03 120.435 130.635C120.042 130.239 119.82 129.703 119.82 129.144V126.147C119.82 125.588 120.042 125.052 120.435 124.656C120.829 124.261 121.363 124.039 121.92 124.039C122.476 124.039 123.01 124.261 123.404 124.656C123.798 125.052 124.019 125.588 124.019 126.147V129.144C124.019 129.421 123.965 129.695 123.859 129.951C123.754 130.206 123.599 130.439 123.404 130.635C123.209 130.83 122.978 130.986 122.723 131.092C122.468 131.198 122.195 131.252 121.92 131.252Z" fill="#42373B"/>
<path d="M80.8634 53.6943C80.3588 53.6957 79.8707 53.5145 79.4883 53.1839C79.1058 52.8533 78.8548 52.3955 78.7811 51.8942C78.7074 51.393 78.8159 50.8819 79.0868 50.4544C79.3577 50.0269 79.7729 49.7117 80.2563 49.5666L81.8737 49.0733C82.1376 48.9929 82.4146 48.9655 82.6889 48.9926C82.9633 49.0198 83.2297 49.1009 83.4728 49.2314C83.716 49.3619 83.9311 49.5392 84.106 49.7532C84.2809 49.9672 84.4122 50.2137 84.4922 50.4787C84.5722 50.7436 84.5995 51.0217 84.5725 51.2973C84.5455 51.5728 84.4646 51.8402 84.3347 52.0844C84.2047 52.3285 84.0281 52.5446 83.815 52.7202C83.6019 52.8959 83.3564 53.0276 83.0926 53.108L81.4705 53.6013C81.2737 53.6617 81.0692 53.693 80.8634 53.6943Z" fill="#DBD7DB"/>
<path d="M88.5519 51.3582C88.0473 51.3595 87.5591 51.1783 87.1767 50.8477C86.7943 50.5172 86.5433 50.0594 86.4696 49.5581C86.3958 49.0569 86.5044 48.5457 86.7753 48.1183C87.0462 47.6908 87.4614 47.3756 87.9448 47.2304L101.936 42.9723C102.2 42.8923 102.477 42.8652 102.752 42.8928C103.027 42.9203 103.293 43.0019 103.536 43.1328C103.779 43.2637 103.994 43.4415 104.169 43.6559C104.344 43.8703 104.475 44.1172 104.555 44.3824C104.634 44.6476 104.661 44.926 104.634 45.2017C104.606 45.4774 104.525 45.7449 104.395 45.9891C104.264 46.2332 104.087 46.4492 103.874 46.6247C103.66 46.8001 103.414 46.9316 103.15 47.0117L89.1637 51.2651C88.9653 51.3255 88.7592 51.3569 88.5519 51.3582Z" fill="#DBD7DB"/>
</svg>
